<svg width="64" height="64" viewBox="0 0 64 64" fill="none" xmlns="http://www.w3.org/2000/svg">
<path d="M64 38.8571H54.8571V29.7143H50.2857V50.2857H13.7143V13.7143H34.2857V9.14286H25.1429V0H20.5714V9.14286H13.7143C12.5022 9.14407 11.3402 9.62609 10.4831 10.4831C9.62609 11.3402 9.14407 12.5022 9.14286 13.7143V20.5714H0V25.1429H9.14286V38.8571H0V43.4286H9.14286V50.2857C9.14407 51.4978 9.62609 52.6598 10.4831 53.5169C11.3402 54.3739 12.5022 54.8559 13.7143 54.8571H20.5714V64H25.1429V54.8571H38.8571V64H43.4286V54.8571H50.2857C51.4976 54.8553 52.6593 54.3731 53.5162 53.5162C54.3731 52.6593 54.8553 51.4976 54.8571 50.2857V43.4286H64V38.8571Z" fill="#F0932B"/>
<path d="M54.8571 0C52.433 0.00242046 50.1089 0.96646 48.3948 2.68055C46.6807 4.39465 45.7167 6.71876 45.7143 9.14286C45.7229 10.7705 46.1706 12.3656 47.0103 13.76L40.1966 20.5714H20.5714V43.4286H43.4286V23.8034L50.24 16.992C51.6345 17.831 53.2297 18.2779 54.8571 18.2857C57.282 18.2857 59.6075 17.3225 61.3221 15.6078C63.0367 13.8932 64 11.5677 64 9.14286C64 6.71802 63.0367 4.3925 61.3221 2.67788C59.6075 0.963263 57.282 0 54.8571 0ZM38.8571 38.8571H25.1429V25.1429H38.8571V38.8571ZM54.8571 13.7143C53.953 13.7143 53.0692 13.4462 52.3174 12.9439C51.5656 12.4415 50.9797 11.7276 50.6337 10.8923C50.2877 10.0569 50.1972 9.13779 50.3736 8.25102C50.5499 7.36425 50.9853 6.54969 51.6247 5.91037C52.264 5.27104 53.0785 4.83566 53.9653 4.65927C54.8521 4.48288 55.7712 4.57341 56.6066 4.91941C57.4419 5.26541 58.1558 5.85134 58.6581 6.60311C59.1605 7.35488 59.4286 8.23871 59.4286 9.14286C59.4274 10.3549 58.9453 11.517 58.0883 12.374C57.2313 13.2311 56.0692 13.7131 54.8571 13.7143Z" fill="#F0932B"/>
</svg>
