<svg width="64" height="64" viewBox="0 0 64 64" fill="none" xmlns="http://www.w3.org/2000/svg">
<path d="M32 0C35.852 0 39.5441 0.681463 42.9642 1.92601L39.141 5.74605C33.355 4.17273 27.2113 4.55531 21.6652 6.8343C16.119 9.11329 11.4814 13.161 8.4733 18.3479C5.46522 23.5349 4.25531 29.5704 5.03171 35.516C5.80811 41.4616 8.52731 46.9841 12.7665 51.2247C17.0056 55.4653 22.5272 58.1863 28.4725 58.9647C34.4179 59.7431 40.4538 58.5352 45.6418 55.5289C50.8298 52.5225 54.879 47.8862 57.1598 42.3409C59.4407 36.7955 59.8253 30.6519 58.254 24.8654L62.074 21.0454C63.3517 24.5562 64.0036 28.2639 64 32C64 49.6733 49.6733 64 32 64C14.3267 64 0 49.6733 0 32C0 14.3267 14.3267 0 32 0ZM32 12.8038C33.621 12.8031 35.2356 13.0073 36.8054 13.4117V18.4251C33.7268 17.3359 30.3694 17.3258 27.2843 18.3962C24.1991 19.4666 21.5695 21.5541 19.8271 24.316C18.0847 27.0779 17.333 30.3501 17.6954 33.5955C18.0578 36.841 19.5127 39.8668 21.8214 42.1763C24.1301 44.4858 27.1554 45.9419 30.4007 46.3055C33.646 46.669 36.9184 45.9185 39.681 44.1771C42.4435 42.4357 44.532 39.8069 45.6035 36.7221C46.6751 33.6374 46.6661 30.28 45.5781 27.201H50.5915C51.5924 31.0773 51.3562 35.1696 49.9161 38.9052C48.476 42.6407 45.9039 45.8324 42.56 48.0338C39.216 50.2351 35.2674 51.3359 31.2669 51.182C27.2663 51.028 23.414 49.6272 20.2491 47.1754C17.0841 44.7237 14.7649 41.3437 13.6161 37.5086C12.4672 33.6735 12.5462 29.5751 13.8419 25.7871C15.1377 21.9991 17.5854 18.711 20.8424 16.383C24.0995 14.0549 28.0029 12.8035 32.0064 12.8038H32ZM38.3987 32C38.3983 33.3753 37.9547 34.7138 37.1339 35.8172C36.313 36.9207 35.1584 37.7302 33.8413 38.126C32.5242 38.5218 31.1147 38.4826 29.8215 38.0144C28.5284 37.5462 27.4206 36.6738 26.6622 35.5265C25.9038 34.3793 25.5352 33.0182 25.611 31.645C25.6869 30.2718 26.2031 28.9596 27.0833 27.9029C27.9634 26.8461 29.1606 26.1011 30.4975 25.7781C31.8343 25.4552 33.2396 25.5716 34.5051 26.11L40.008 20.6071L40.0048 10.4043C40.0054 9.76814 40.2585 9.15822 40.7087 8.70866L48.7071 0.710258C49.0426 0.375104 49.47 0.146912 49.9352 0.0545C50.4004 -0.0379116 50.8825 0.00960332 51.3207 0.191043C51.7589 0.372483 52.1335 0.67971 52.3972 1.07392C52.6609 1.46813 52.8018 1.93165 52.8022 2.40592V11.2042H61.6005C62.0748 11.2046 62.5383 11.3455 62.9325 11.6092C63.3267 11.8729 63.6339 12.2475 63.8154 12.6857C63.9968 13.1239 64.0443 13.606 63.9519 14.0712C63.8595 14.5364 63.6313 14.9638 63.2961 15.2993L55.2977 23.2977C54.8482 23.7479 54.2383 24.001 53.6021 24.0016H43.3961L37.8932 29.5045C38.2196 30.2723 38.3987 31.1138 38.3987 32ZM52.6071 19.2026L55.8064 16.0032H50.3995C49.7631 16.0032 49.1528 15.7504 48.7028 15.3004C48.2528 14.8504 48 14.2401 48 13.6037V8.19676L44.8038 11.3961V19.0138C44.8715 19.0728 44.9356 19.1359 44.9958 19.2026H52.6103H52.6071Z" fill="#04C7F2"/>
</svg>
