<svg width="64" height="64" viewBox="0 0 64 64" fill="none" xmlns="http://www.w3.org/2000/svg">
<path d="M16 22.8571V18.2857H4.57143C3.35901 18.2857 2.19625 18.7673 1.33894 19.6247C0.481631 20.482 0 21.6447 0 22.8571V59.4286C0 60.641 0.481631 61.8037 1.33894 62.6611C2.19625 63.5184 3.35901 64 4.57143 64H41.1429C42.3553 64 43.518 63.5184 44.3753 62.6611C45.2327 61.8037 45.7143 60.641 45.7143 59.4286V38.8571H41.1429V59.4286H4.57143V22.8571" fill="#00B894"/>
<path d="M45.7143 22.8571H27.4286V4.57143H45.7143V22.8571ZM22.8571 4.57143V22.8571C22.8571 24.0696 23.3388 25.2323 24.1961 26.0896C25.0534 26.9469 26.2162 27.4286 27.4286 27.4286H45.7143C46.9267 27.4286 48.0895 26.9469 48.9468 26.0896C49.8041 25.2323 50.2857 24.0696 50.2857 22.8571V4.57143C50.2857 3.35901 49.8041 2.19625 48.9468 1.33894C48.0895 0.481631 46.9267 0 45.7143 0H27.4286C26.2162 0 25.0534 0.481631 24.1961 1.33894C23.3388 2.19625 22.8571 3.35901 22.8571 4.57143Z" fill="#00B894"/>
<path d="M27.4286 36.5714V45.7143H18.2857V36.5714H27.4286ZM13.7143 36.5714V45.7143C13.7143 46.9267 14.1959 48.0895 15.0532 48.9468C15.9105 49.8041 17.0733 50.2857 18.2857 50.2857H27.4286C28.641 50.2857 29.8037 49.8041 30.6611 48.9468C31.5184 48.0895 32 46.9267 32 45.7143V36.5714C32 35.359 31.5184 34.1963 30.6611 33.3389C29.8037 32.4816 28.641 32 27.4286 32H18.2857C17.0733 32 15.9105 32.4816 15.0532 33.3389C14.1959 34.1963 13.7143 35.359 13.7143 36.5714Z" fill="#00B894"/>
<path d="M59.4286 34.2857V38.8571H54.8571V34.2857H59.4286ZM50.2857 32V41.1429C50.2857 41.7491 50.5265 42.3304 50.9552 42.7591C51.3838 43.1878 51.9652 43.4286 52.5714 43.4286H61.7143C62.3205 43.4286 62.9019 43.1878 63.3305 42.7591C63.7592 42.3304 64 41.7491 64 41.1429V32C64 31.3938 63.7592 30.8124 63.3305 30.3838C62.9019 29.9551 62.3205 29.7143 61.7143 29.7143H52.5714C51.9652 29.7143 51.3838 29.9551 50.9552 30.3838C50.5265 30.8124 50.2857 31.3938 50.2857 32Z" fill="#00B894"/>
</svg>
