<svg width="66" height="64" viewBox="0 0 66 64" fill="none" xmlns="http://www.w3.org/2000/svg">
<path d="M6.6433 2.82353C6.6433 2.07468 6.34583 1.35651 5.81631 0.826992C5.2868 0.297478 4.56862 0 3.81978 0C3.07093 0 2.35275 0.297478 1.82324 0.826992C1.29372 1.35651 0.996246 2.07468 0.996246 2.82353V57.4118C0.996246 61.0485 3.94778 64 7.58448 64H62.1727C62.9216 64 63.6397 63.7025 64.1692 63.173C64.6988 62.6435 64.9962 61.9253 64.9962 61.1765C64.9962 60.4276 64.6988 59.7094 64.1692 59.1799C63.6397 58.6504 62.9216 58.3529 62.1727 58.3529H7.58448C7.33487 58.3529 7.09547 58.2538 6.91897 58.0773C6.74246 57.9008 6.6433 57.6614 6.6433 57.4118V2.82353ZM40.5257 12.2353C40.5257 11.4864 40.8231 10.7683 41.3526 10.2388C41.8822 9.70924 42.6003 9.41177 43.3492 9.41177H62.1802C62.9291 9.41177 63.6473 9.70924 64.1768 10.2388C64.7063 10.7683 65.0038 11.4864 65.0038 12.2353V31.0777C65.0038 31.8265 64.7063 32.5447 64.1768 33.0742C63.6473 33.6037 62.9291 33.9012 62.1802 33.9012C61.4314 33.9012 60.7132 33.6037 60.1837 33.0742C59.6542 32.5447 59.3567 31.8265 59.3567 31.0777V19.0456L39.6974 38.7012C39.168 39.2299 38.4504 39.5269 37.7021 39.5269C36.9539 39.5269 36.2362 39.2299 35.7068 38.7012L28.2904 31.2847L16.168 43.4071C15.6328 43.9058 14.9248 44.1773 14.1933 44.1644C13.4618 44.1515 12.7639 43.8552 12.2466 43.3379C11.7293 42.8206 11.433 42.1226 11.4201 41.3911C11.4072 40.6597 11.6787 39.9517 12.1774 39.4165L26.2951 25.2988C26.8245 24.7701 27.5421 24.4731 28.2904 24.4731C29.0386 24.4731 29.7562 24.7701 30.2857 25.2988L37.7021 32.7153L55.3586 15.0588H43.3492C42.6003 15.0588 41.8822 14.7613 41.3526 14.2318C40.8231 13.7023 40.5257 12.9841 40.5257 12.2353Z" fill="#FF7675"/>
</svg>
