<svg width="105" height="105" viewBox="0 0 105 105" fill="none" xmlns="http://www.w3.org/2000/svg">
<path d="M100.639 48.4986H56.3708V4.23043C56.3708 3.1631 55.9468 2.13949 55.1921 1.38477C54.4373 0.630051 53.4137 0.206055 52.3464 0.206055C51.2791 0.206055 50.2554 0.630051 49.5007 1.38477C48.746 2.13949 48.322 3.1631 48.322 4.23043V48.4986H4.05387C2.98654 48.4986 1.96292 48.9226 1.20821 49.6773C0.453489 50.432 0.0294926 51.4556 0.0294926 52.5229C0.00963377 53.046 0.10212 53.5672 0.300716 54.0514C0.499313 54.5357 0.799405 54.9718 1.18077 55.3303C1.56214 55.6888 2.01592 55.9613 2.51153 56.1296C3.00714 56.2979 3.53307 56.358 4.05387 56.3059H48.322V100.815C48.322 101.883 48.746 102.906 49.5007 103.661C50.2554 104.416 51.2791 104.84 52.3464 104.84C53.4137 104.84 54.4373 104.416 55.1921 103.661C55.9468 102.906 56.3708 101.883 56.3708 100.815V56.5473H100.639C101.706 56.5473 102.73 56.1233 103.485 55.3686C104.239 54.6139 104.663 53.5903 104.663 52.5229C104.663 51.4556 104.239 50.432 103.485 49.6773C102.73 48.9226 101.706 48.4986 100.639 48.4986Z" fill="white"/>
</svg>
