<svg width="165" height="40" viewBox="0 0 165 40" fill="none" xmlns="http://www.w3.org/2000/svg">
<path d="M44.2 35V6.2H49.02V30.48H61.74V35H44.2ZM74.9481 35.6C72.7615 35.6 70.8415 35.1267 69.1881 34.18C67.5348 33.2333 66.2415 31.92 65.3081 30.24C64.3881 28.56 63.9281 26.6267 63.9281 24.44C63.9281 22.08 64.3815 20.0333 65.2881 18.3C66.1948 16.5533 67.4548 15.2 69.0681 14.24C70.6815 13.28 72.5481 12.8 74.6681 12.8C76.9081 12.8 78.8081 13.3267 80.3681 14.38C81.9415 15.42 83.1081 16.8933 83.8681 18.8C84.6281 20.7067 84.9148 22.9533 84.7281 25.54H79.9481V23.78C79.9348 21.4333 79.5215 19.72 78.7081 18.64C77.8948 17.56 76.6148 17.02 74.8681 17.02C72.8948 17.02 71.4281 17.6333 70.4681 18.86C69.5081 20.0733 69.0281 21.8533 69.0281 24.2C69.0281 26.3867 69.5081 28.08 70.4681 29.28C71.4281 30.48 72.8281 31.08 74.6681 31.08C75.8548 31.08 76.8748 30.82 77.7281 30.3C78.5948 29.7667 79.2615 29 79.7281 28L84.4881 29.44C83.6615 31.3867 82.3815 32.9 80.6481 33.98C78.9281 35.06 77.0281 35.6 74.9481 35.6ZM67.5081 25.54V21.9H82.3681V25.54H67.5081ZM94.2494 35L86.4094 13.4H91.2294L96.6694 29.06L102.089 13.4H106.929L99.0894 35H94.2494ZM119.558 35.6C117.371 35.6 115.451 35.1267 113.798 34.18C112.144 33.2333 110.851 31.92 109.918 30.24C108.998 28.56 108.538 26.6267 108.538 24.44C108.538 22.08 108.991 20.0333 109.898 18.3C110.804 16.5533 112.064 15.2 113.678 14.24C115.291 13.28 117.158 12.8 119.278 12.8C121.518 12.8 123.418 13.3267 124.978 14.38C126.551 15.42 127.718 16.8933 128.478 18.8C129.238 20.7067 129.524 22.9533 129.338 25.54H124.558V23.78C124.544 21.4333 124.131 19.72 123.318 18.64C122.504 17.56 121.224 17.02 119.478 17.02C117.504 17.02 116.038 17.6333 115.078 18.86C114.118 20.0733 113.638 21.8533 113.638 24.2C113.638 26.3867 114.118 28.08 115.078 29.28C116.038 30.48 117.438 31.08 119.278 31.08C120.464 31.08 121.484 30.82 122.338 30.3C123.204 29.7667 123.871 29 124.338 28L129.098 29.44C128.271 31.3867 126.991 32.9 125.258 33.98C123.538 35.06 121.638 35.6 119.558 35.6ZM112.118 25.54V21.9H126.978V25.54H112.118ZM133.8 35V13.4H138.06V18.66L137.54 17.98C137.807 17.26 138.16 16.6067 138.6 16.02C139.053 15.42 139.593 14.9267 140.22 14.54C140.753 14.18 141.34 13.9 141.98 13.7C142.633 13.4867 143.3 13.36 143.98 13.32C144.66 13.2667 145.32 13.2933 145.96 13.4V17.9C145.32 17.7133 144.58 17.6533 143.74 17.72C142.913 17.7867 142.167 18.02 141.5 18.42C140.833 18.78 140.287 19.24 139.86 19.8C139.447 20.36 139.14 21 138.94 21.72C138.74 22.4267 138.64 23.1933 138.64 24.02V35H133.8ZM162.437 35C161.01 35.2667 159.61 35.38 158.237 35.34C156.877 35.3133 155.657 35.0667 154.577 34.6C153.497 34.12 152.677 33.3667 152.117 32.34C151.623 31.4067 151.363 30.4533 151.337 29.48C151.31 28.5067 151.297 27.4067 151.297 26.18V7.4H156.097V25.9C156.097 26.7667 156.103 27.5267 156.117 28.18C156.143 28.8333 156.283 29.3667 156.537 29.78C157.017 30.58 157.783 31.0267 158.837 31.12C159.89 31.2133 161.09 31.16 162.437 30.96V35ZM147.377 17.18V13.4H162.437V17.18H147.377Z" fill="#2D3436"/>
<rect y="3" width="33" height="35" fill="#0984E3"/>
<path d="M29 29H15V21H29V29ZM17 27H27V23H17V27Z" fill="white"/>
<path d="M27 17H9V9H27V17ZM11 15H25V11H11V15Z" fill="white"/>
<path d="M31 35H5C4.46973 34.9995 3.96133 34.7886 3.58637 34.4136C3.21141 34.0387 3.00053 33.5303 3 33V7H5V33H31V35Z" fill="white"/>
</svg>
