<svg width="18" height="17" viewBox="0 0 18 17" fill="none" xmlns="http://www.w3.org/2000/svg">
<path d="M17.428 4.27205C17.1509 3.63041 16.7513 3.04896 16.2517 2.56025C15.7517 2.07009 15.1621 1.68056 14.5151 1.41286C13.8442 1.13416 13.1246 0.991506 12.3981 0.993179C11.3789 0.993179 10.3845 1.27228 9.52029 1.79946C9.31355 1.92557 9.11715 2.06408 8.93109 2.215C8.74502 2.06408 8.54862 1.92557 8.34189 1.79946C7.47772 1.27228 6.48331 0.993179 5.46409 0.993179C4.73017 0.993179 4.01899 1.13376 3.34709 1.41286C2.69793 1.68162 2.11286 2.06822 1.61049 2.56025C1.11018 3.04841 0.710513 3.62999 0.43415 4.27205C0.146784 4.93981 0 5.64892 0 6.37871C0 7.06715 0.140582 7.78453 0.419679 8.51431C0.653293 9.12419 0.988208 9.75681 1.41616 10.3956C2.09426 11.4066 3.02665 12.4609 4.18438 13.5298C6.10291 15.3015 8.00283 16.5254 8.08346 16.575L8.57343 16.8893C8.79051 17.0278 9.0696 17.0278 9.28668 16.8893L9.77665 16.575C9.85728 16.5234 11.7551 15.3015 13.6757 13.5298C14.8335 12.4609 15.7659 11.4066 16.444 10.3956C16.8719 9.75681 17.2089 9.12419 17.4404 8.51431C17.7195 7.78453 17.8601 7.06715 17.8601 6.37871C17.8622 5.64892 17.7154 4.93981 17.428 4.27205Z" fill="#FF7675"/>
</svg>
