<svg width="38" height="38" viewBox="0 0 38 38" fill="none" xmlns="http://www.w3.org/2000/svg">
<path fill-rule="evenodd" clip-rule="evenodd" d="M19.1449 0.000484035C19.1396 0.179701 19.1369 0.359558 19.1368 0.540014C19.1366 0.359394 19.1339 0.179378 19.1286 0L19.1449 0.000484035ZM0.555984 19.1367C0.370005 19.1367 0.184665 19.134 0 19.1286C0.0001597 19.134 0.000321733 19.1394 0.000486099 19.1449C0.18499 19.1394 0.370169 19.1367 0.555984 19.1367ZM19.1281 37.1453C19.1339 37.1451 19.1397 37.1449 19.1454 37.1447C19.4423 27.3381 27.3381 19.4423 37.1447 19.1454L37.1453 19.1281C27.1534 18.8258 19.1452 10.635 19.1368 0.571857C19.1282 10.8251 10.8146 19.1346 0.559823 19.1367C10.6285 19.1388 18.8258 27.1494 19.1281 37.1453Z" fill="#FF7675"/>
</svg>
