<svg width="22" height="18" viewBox="0 0 22 18" fill="none" xmlns="http://www.w3.org/2000/svg">
<path d="M3 1V0V1ZM19 1V0V1ZM1 15H0H1ZM8.501 11.001L9.12575 10.2202L9.12571 10.2201L8.501 11.001ZM13.499 11.001L12.8743 10.2201L12.8742 10.2202L13.499 11.001ZM2 3C2 2.73478 2.10536 2.48043 2.29289 2.29289L0.87868 0.87868C0.31607 1.44129 0 2.20435 0 3H2ZM2.29289 2.29289C2.48043 2.10536 2.73478 2 3 2V0C2.20435 0 1.44129 0.31607 0.87868 0.87868L2.29289 2.29289ZM3 2H19V0H3V2ZM19 2C19.2652 2 19.5196 2.10536 19.7071 2.29289L21.1213 0.87868C20.5587 0.31607 19.7957 0 19 0V2ZM19.7071 2.29289C19.8946 2.48043 20 2.73478 20 3H22C22 2.20435 21.6839 1.44129 21.1213 0.87868L19.7071 2.29289ZM20 3V15H22V3H20ZM20 15C20 15.2652 19.8946 15.5196 19.7071 15.7071L21.1213 17.1213C21.6839 16.5587 22 15.7957 22 15H20ZM19.7071 15.7071C19.5196 15.8946 19.2652 16 19 16V18C19.7957 18 20.5587 17.6839 21.1213 17.1213L19.7071 15.7071ZM19 16H3V18H19V16ZM3 16C2.73478 16 2.48043 15.8946 2.29289 15.7071L0.87868 17.1213C1.44129 17.6839 2.20435 18 3 18V16ZM2.29289 15.7071C2.10536 15.5196 2 15.2652 2 15H0C0 15.7956 0.31607 16.5587 0.87868 17.1213L2.29289 15.7071ZM2 15V3H0V15H2ZM0.375292 5.78086L7.87629 11.7819L9.12571 10.2201L1.62471 4.21914L0.375292 5.78086ZM7.87625 11.7818C8.76286 12.4912 9.86452 12.8777 11 12.8777V10.8777C10.3187 10.8777 9.65772 10.6458 9.12575 10.2202L7.87625 11.7818ZM11 12.8777C12.1355 12.8777 13.2371 12.4912 14.1237 11.7818L12.8742 10.2202C12.3423 10.6458 11.6813 10.8777 11 10.8777V12.8777ZM14.1237 11.7819L21.6247 5.78086L20.3753 4.21914L12.8743 10.2201L14.1237 11.7819Z" fill="#0984E3"/>
</svg>
