<svg width="19" height="24" viewBox="0 0 19 24" fill="none" xmlns="http://www.w3.org/2000/svg">
<path d="M3.35159 0.559061L4.74535 0.139858C5.50886 -0.0903771 6.33006 -0.0349534 7.05571 0.295787C7.78136 0.626527 8.36189 1.20999 8.68897 1.9373L9.76624 4.33309C10.0475 4.95867 10.1258 5.65659 9.99018 6.32894C9.8546 7.00129 9.51192 7.61433 9.01024 8.08203L7.22593 9.7457C7.17378 9.79431 7.14073 9.85997 7.13278 9.93082C7.08023 10.405 7.4015 11.3282 8.14197 12.6121C8.68061 13.5448 9.16908 14.2005 9.58351 14.5671C9.87253 14.8239 10.0314 14.8789 10.0994 14.8597L12.5 14.1252C13.1556 13.9247 13.8575 13.9344 14.5073 14.1528C15.1571 14.3713 15.7223 14.7876 16.1236 15.3434L17.6535 17.4645C18.1187 18.1096 18.3341 18.9015 18.2596 19.6933C18.1852 20.4851 17.8259 21.223 17.2486 21.77L16.1904 22.7733C15.6288 23.3051 14.9391 23.6824 14.1883 23.8685C13.4376 24.0545 12.6514 24.043 11.9064 23.835C8.61731 22.9166 5.66855 20.141 3.02674 15.5656C0.381336 10.9842 -0.546645 7.0382 0.308482 3.72638C0.500976 2.98152 0.882094 2.29882 1.4151 1.74406C1.94811 1.18929 2.61503 0.781183 3.35159 0.559061ZM3.86873 2.27529C3.42692 2.4084 3.02683 2.65303 2.70699 2.98563C2.38716 3.31822 2.15836 3.72757 2.04262 4.17424C1.32365 6.95938 2.14653 10.4575 4.57815 14.6699C7.00618 18.8762 9.62053 21.3365 12.3889 22.1104C12.8358 22.2349 13.3072 22.2415 13.7574 22.1298C14.2076 22.018 14.6212 21.7916 14.9579 21.4727L16.0173 20.4694C16.2798 20.2208 16.4431 19.8853 16.477 19.5252C16.5108 19.1652 16.4128 18.8052 16.2012 18.512L14.6725 16.392C14.49 16.1391 14.233 15.9496 13.9374 15.8503C13.6418 15.7509 13.3225 15.7465 13.0243 15.8379L10.6178 16.5748C9.22044 16.9904 7.95208 15.8666 6.59056 13.5078C5.67333 11.9194 5.24577 10.6892 5.35206 9.73257C5.40819 9.23573 5.6387 8.77712 6.00415 8.43554L7.78846 6.77187C8.0166 6.5593 8.17245 6.28063 8.23414 5.97497C8.29583 5.66931 8.26025 5.352 8.13242 5.06759L7.05515 2.6718C6.90648 2.34146 6.64277 2.07645 6.31317 1.92615C5.98358 1.77585 5.61057 1.75053 5.26368 1.85489L3.86873 2.27529Z" fill="#0984E3"/>
</svg>
