<svg width="25" height="24" viewBox="0 0 25 24" fill="none" xmlns="http://www.w3.org/2000/svg">
<path d="M24.179 19.2132L20.119 15.1532L16.9961 13.863C18.0359 12.3844 18.593 10.6203 18.591 8.81258C18.591 3.9533 14.6377 0 9.77841 0C4.91912 0 0.96582 3.9533 0.96582 8.81258C0.96582 13.6719 4.91912 17.6252 9.77841 17.6252C11.6018 17.6272 13.3805 17.0605 14.8666 16.004L16.1535 19.1185L20.2133 23.1786C20.4737 23.439 20.7828 23.6456 21.123 23.7865C21.4632 23.9274 21.8278 24 22.196 24C22.5643 24 22.9289 23.9275 23.2691 23.7866C23.6093 23.6457 23.9185 23.4391 24.1788 23.1788C24.4392 22.9184 24.6458 22.6093 24.7867 22.2691C24.9276 21.9289 25.0002 21.5643 25.0002 21.196C25.0002 20.8278 24.9277 20.4632 24.7868 20.123C24.6459 19.7827 24.4393 19.4736 24.179 19.2132ZM2.56811 8.81258C2.56811 4.83691 5.80273 1.60229 9.77841 1.60229C13.7541 1.60229 16.9887 4.83691 16.9887 8.81258C16.9887 12.7883 13.7541 16.0229 9.77841 16.0229C5.80273 16.0229 2.56811 12.7883 2.56811 8.81258ZM23.0459 22.0457C22.8204 22.2707 22.5148 22.3971 22.1961 22.3971C21.8775 22.3971 21.5719 22.2707 21.3464 22.0457L17.5123 18.2116L16.3159 15.3157L19.2119 16.5121L23.046 20.3462C23.271 20.5718 23.3974 20.8774 23.3973 21.196C23.3973 21.5146 23.2709 21.8201 23.0459 22.0457Z" fill="#868e96"/>
</svg>
