<svg width="33" height="33" viewBox="0 0 33 33" fill="none" xmlns="http://www.w3.org/2000/svg">
<path d="M2.82359 1.80508C2.82359 1.43065 2.67485 1.07156 2.41009 0.806807C2.14534 0.542049 1.78625 0.393311 1.41183 0.393311C1.0374 0.393311 0.678314 0.542049 0.413557 0.806807C0.1488 1.07156 6.10352e-05 1.43065 6.10352e-05 1.80508V29.0992C6.10352e-05 30.9175 1.47583 32.3933 3.29418 32.3933H30.5883C30.9627 32.3933 31.3218 32.2446 31.5866 31.9798C31.8513 31.7151 32.0001 31.356 32.0001 30.9815C32.0001 30.6071 31.8513 30.248 31.5866 29.9833C31.3218 29.7185 30.9627 29.5698 30.5883 29.5698H3.29418C3.16937 29.5698 3.04967 29.5202 2.96142 29.432C2.87317 29.3437 2.82359 29.224 2.82359 29.0992V1.80508ZM19.7648 6.51096C19.7648 6.13653 19.9135 5.77745 20.1783 5.51269C20.443 5.24793 20.8021 5.09919 21.1765 5.09919H30.5921C30.9665 5.09919 31.3256 5.24793 31.5903 5.51269C31.8551 5.77745 32.0038 6.13653 32.0038 6.51096V15.9321C32.0038 16.3066 31.8551 16.6656 31.5903 16.9304C31.3256 17.1952 30.9665 17.3439 30.5921 17.3439C30.2176 17.3439 29.8585 17.1952 29.5938 16.9304C29.329 16.6656 29.1803 16.3066 29.1803 15.9321V9.91613L19.3506 19.7439C19.0859 20.0083 18.7271 20.1568 18.353 20.1568C17.9789 20.1568 17.6201 20.0083 17.3554 19.7439L13.6471 16.0357L7.58594 22.0968C7.31832 22.3462 6.96435 22.482 6.59861 22.4755C6.23286 22.4691 5.8839 22.3209 5.62524 22.0622C5.36658 21.8036 5.21842 21.4546 5.21197 21.0889C5.20551 20.7231 5.34127 20.3692 5.59065 20.1015L12.6495 13.0427C12.9142 12.7783 13.273 12.6298 13.6471 12.6298C14.0212 12.6298 14.3801 12.7783 14.6448 13.0427L18.353 16.751L27.1812 7.92272H21.1765C20.8021 7.92272 20.443 7.77398 20.1783 7.50923C19.9135 7.24447 19.7648 6.88538 19.7648 6.51096Z" fill="#0984E3"/>
</svg>
