<svg width="33" height="32" viewBox="0 0 33 32" fill="none" xmlns="http://www.w3.org/2000/svg">
<path fill-rule="evenodd" clip-rule="evenodd" d="M16.0331 24.2303C13.1388 24.2303 10.1983 22.5122 8.48222 20.2381C0.248886 20.2381 0 32 0 32H32.0642C32.0642 32 32.7105 20.1859 23.4515 20.1859C21.7374 22.4881 18.9274 24.2303 16.0331 24.2303Z" fill="#04C7F2"/>
<path fill-rule="evenodd" clip-rule="evenodd" d="M22.9297 10.1301C22.9297 13.5141 19.8407 19.9852 16.0271 19.9852C12.2195 19.9852 9.12852 13.5121 9.12852 10.1301C9.12852 6.74804 12.2175 4.00226 16.0271 4.00226C19.8407 4.00427 22.9297 6.75005 22.9297 10.1301Z" fill="#04C7F2"/>
<path fill-rule="evenodd" clip-rule="evenodd" d="M26.0087 7.20968C26.0087 6.57542 25.1255 6.0636 24.0296 6.05959V4.75293C24.0296 4.55824 24.1039 0 16.0512 0C8.00251 0 8.07677 4.55824 8.07677 4.75293V6.10575C8.0567 6.10575 8.04064 6.09973 8.02258 6.09973C6.9327 6.09973 6.05557 6.60352 6.05557 7.22775V12.7554C6.05557 13.3757 6.9347 13.8815 8.02258 13.8815C9.11046 13.8815 9.9936 13.3757 9.9936 12.7554V7.22775C9.9936 7.14144 9.93941 7.06316 9.90729 6.98288V5.47551C9.90729 5.33701 9.32924 1.89676 16.0512 1.89676C22.7751 1.89676 22.0766 5.33701 22.0766 5.47551V7.06316C22.0646 7.11334 22.0265 7.1575 22.0265 7.20968V12.8638C22.0265 13.5001 22.9156 14.0159 24.0176 14.0159C24.0416 14.0159 24.0597 14.0079 24.0838 14.0079V16.0733H22.1088V18.0202H26.0287L26.0087 7.20968Z" fill="#04C7F2"/>
</svg>
