<svg width="32" height="33" viewBox="0 0 32 33" fill="none" xmlns="http://www.w3.org/2000/svg">
<path d="M16 0.393311C17.926 0.393311 19.772 0.734042 21.4821 1.35632L19.5705 3.26634C16.6775 2.47968 13.6056 2.67097 10.8326 3.81046C8.05952 4.94995 5.74069 6.97379 4.23665 9.56727C2.73261 12.1608 2.12766 15.1785 2.51586 18.1513C2.90406 21.1241 4.26366 23.8854 6.38324 26.0057C8.50282 28.1259 11.2636 29.4865 14.2363 29.8757C17.2089 30.2649 20.2269 29.6609 22.8209 28.1577C25.4149 26.6546 27.4395 24.3364 28.5799 21.5637C29.7203 18.7911 29.9127 15.7193 29.127 12.826L31.037 10.916C31.6758 12.6714 32.0018 14.5253 32 16.3933C32 25.2299 24.8366 32.3933 16 32.3933C7.16337 32.3933 0 25.2299 0 16.3933C0 7.55668 7.16337 0.393311 16 0.393311ZM16 6.79523C16.8105 6.79486 17.6178 6.89698 18.4027 7.09917V9.60587C16.8634 9.06128 15.1847 9.05619 13.6421 9.59141C12.0996 10.1266 10.7848 11.1704 9.91356 12.5513C9.04235 13.9323 8.6665 15.5684 8.8477 17.1911C9.02889 18.8138 9.75637 20.3267 10.9107 21.4815C12.0651 22.6362 13.5777 23.3643 15.2003 23.546C16.823 23.7278 18.4592 23.3526 19.8405 22.4819C21.2218 21.6112 22.266 20.2968 22.8018 18.7544C23.3375 17.212 23.3331 15.5333 22.789 13.9938H25.2957C25.7962 15.932 25.6781 17.9781 24.958 19.8459C24.238 21.7136 22.952 23.3095 21.28 24.4102C19.608 25.5109 17.6337 26.0612 15.6334 25.9843C13.6332 25.9073 11.707 25.2069 10.1245 23.981C8.54206 22.7551 7.38247 21.0652 6.80804 19.1476C6.23361 17.23 6.2731 15.1809 6.92097 13.2869C7.56884 11.3928 8.79268 9.74879 10.4212 8.58479C12.0497 7.42078 14.0014 6.79507 16.0032 6.79523H16ZM19.1994 16.3933C19.1991 17.0809 18.9774 17.7502 18.5669 18.3019C18.1565 18.8536 17.5792 19.2584 16.9207 19.4563C16.2621 19.6542 15.5573 19.6346 14.9108 19.4005C14.2642 19.1664 13.7103 18.7302 13.3311 18.1566C12.9519 17.5829 12.7676 16.9024 12.8055 16.2158C12.8434 15.5292 13.1016 14.8731 13.5416 14.3447C13.9817 13.8164 14.5803 13.4438 15.2487 13.2824C15.9171 13.1209 16.6198 13.1791 17.2525 13.4483L20.004 10.6968L20.0024 5.59547C20.0027 5.27738 20.1293 4.97242 20.3543 4.74764L24.3535 0.748439C24.5213 0.580863 24.735 0.466766 24.9676 0.420561C25.2002 0.374355 25.4412 0.398112 25.6603 0.488832C25.8794 0.579552 26.0667 0.733166 26.1986 0.930271C26.3304 1.12738 26.4009 1.35913 26.4011 1.59627V5.99539H30.8002C31.0374 5.9956 31.2691 6.06608 31.4662 6.19792C31.6633 6.32977 31.817 6.51707 31.9077 6.73616C31.9984 6.95526 32.0222 7.19633 31.9759 7.42892C31.9297 7.66151 31.8156 7.87519 31.6481 8.04298L27.6489 12.0422C27.4241 12.2672 27.1191 12.3938 26.801 12.3941H21.6981L18.9466 15.1456C19.1098 15.5295 19.1994 15.9502 19.1994 16.3933ZM26.3035 9.99459L27.9032 8.39491H25.1998C24.8816 8.39491 24.5764 8.26851 24.3514 8.04351C24.1264 7.81851 24 7.51334 24 7.19515V4.49169L22.4019 6.09137V9.90021C22.4358 9.92972 22.4678 9.96124 22.4979 9.99459H26.3051H26.3035Z" fill="#F0932B"/>
</svg>
