<svg width="32" height="33" viewBox="0 0 32 33" fill="none" xmlns="http://www.w3.org/2000/svg">
<path d="M32.0001 19.8219H27.4286V15.2505H25.1429V25.5362H6.8572V7.25045H17.1429V4.96474H12.5715V0.393311H10.2858V4.96474H6.8572C6.25118 4.96534 5.67015 5.20635 5.24163 5.63488C4.81311 6.0634 4.57209 6.64443 4.57149 7.25045V10.679H6.10352e-05V12.9647H4.57149V19.8219H6.10352e-05V22.1076H4.57149V25.5362C4.57209 26.1422 4.81311 26.7232 5.24163 27.1517C5.67015 27.5803 6.25118 27.8213 6.8572 27.8219H10.2858V32.3933H12.5715V27.8219H19.4286V32.3933H21.7143V27.8219H25.1429C25.7488 27.821 26.3297 27.5799 26.7582 27.1514C27.1866 26.723 27.4277 26.1421 27.4286 25.5362V22.1076H32.0001V19.8219Z" fill="#04C7F2"/>
<path d="M27.4286 0.393311C26.2166 0.394521 25.0545 0.876541 24.1975 1.73359C23.3404 2.59063 22.8584 3.75269 22.8572 4.96474C22.8615 5.77856 23.0854 6.57613 23.5052 7.27331L20.0983 10.679H10.2858V22.1076H21.7143V12.295L25.1201 8.88931C25.8173 9.3088 26.6149 9.53228 27.4286 9.53617C28.6411 9.53617 29.8038 9.05454 30.6611 8.19723C31.5184 7.33992 32.0001 6.17716 32.0001 4.96474C32.0001 3.75232 31.5184 2.58956 30.6611 1.73225C29.8038 0.874942 28.6411 0.393311 27.4286 0.393311ZM19.4286 19.8219H12.5715V12.9647H19.4286V19.8219ZM27.4286 7.25045C26.9766 7.25045 26.5346 7.1164 26.1588 6.86524C25.7829 6.61408 25.4899 6.2571 25.3169 5.83944C25.1439 5.42178 25.0986 4.9622 25.1868 4.51882C25.275 4.07543 25.4927 3.66816 25.8124 3.3485C26.1321 3.02883 26.5393 2.81114 26.9827 2.72294C27.4261 2.63475 27.8857 2.68001 28.3033 2.85301C28.721 3.02601 29.078 3.31898 29.3291 3.69486C29.5803 4.07075 29.7143 4.51267 29.7143 4.96474C29.7137 5.57076 29.4727 6.15179 29.0442 6.58031C28.6157 7.00884 28.0347 7.24985 27.4286 7.25045Z" fill="#04C7F2"/>
</svg>
