<svg width="32" height="33" viewBox="0 0 32 33" fill="none" xmlns="http://www.w3.org/2000/svg">
<path d="M8 11.8219V9.53617H2.28571C1.67951 9.53617 1.09812 9.77698 0.66947 10.2056C0.240816 10.6343 0 11.2157 0 11.8219V30.1076C0 30.7138 0.240816 31.2952 0.66947 31.7238C1.09812 32.1525 1.67951 32.3933 2.28571 32.3933H20.5714C21.1776 32.3933 21.759 32.1525 22.1877 31.7238C22.6163 31.2952 22.8571 30.7138 22.8571 30.1076V19.8219H20.5714V30.1076H2.28571V11.8219" fill="#00B894"/>
<path d="M22.8571 11.8219H13.7143V2.67902H22.8571V11.8219ZM11.4286 2.67902V11.8219C11.4286 12.4281 11.6694 13.0095 12.098 13.4381C12.5267 13.8668 13.1081 14.1076 13.7143 14.1076H22.8571C23.4634 14.1076 24.0447 13.8668 24.4734 13.4381C24.902 13.0095 25.1429 12.4281 25.1429 11.8219V2.67902C25.1429 2.07282 24.902 1.49144 24.4734 1.06278C24.0447 0.634126 23.4634 0.393311 22.8571 0.393311H13.7143C13.1081 0.393311 12.5267 0.634126 12.098 1.06278C11.6694 1.49144 11.4286 2.07282 11.4286 2.67902Z" fill="#00B894"/>
<path d="M13.7143 18.679V23.2505H9.14286V18.679H13.7143ZM6.85714 18.679V23.2505C6.85714 23.8567 7.09796 24.438 7.52661 24.8667C7.95527 25.2954 8.53665 25.5362 9.14286 25.5362H13.7143C14.3205 25.5362 14.9019 25.2954 15.3305 24.8667C15.7592 24.438 16 23.8567 16 23.2505V18.679C16 18.0728 15.7592 17.4914 15.3305 17.0628C14.9019 16.6341 14.3205 16.3933 13.7143 16.3933H9.14286C8.53665 16.3933 7.95527 16.6341 7.52661 17.0628C7.09796 17.4914 6.85714 18.0728 6.85714 18.679Z" fill="#00B894"/>
<path d="M29.7143 17.5362V19.8219H27.4286V17.5362H29.7143ZM25.1429 16.3933V20.9647C25.1429 21.2678 25.2633 21.5585 25.4776 21.7729C25.6919 21.9872 25.9826 22.1076 26.2857 22.1076H30.8571C31.1602 22.1076 31.4509 21.9872 31.6653 21.7729C31.8796 21.5585 32 21.2678 32 20.9647V16.3933C32 16.0902 31.8796 15.7995 31.6653 15.5852C31.4509 15.3709 31.1602 15.2505 30.8571 15.2505H26.2857C25.9826 15.2505 25.6919 15.3709 25.4776 15.5852C25.2633 15.7995 25.1429 16.0902 25.1429 16.3933Z" fill="#00B894"/>
</svg>
