<svg width="31" height="32" viewBox="0 0 31 32" fill="none" xmlns="http://www.w3.org/2000/svg">
<path d="M12.8 0L24.4768 3.648C24.8025 3.74967 25.0871 3.95277 25.2892 4.22766C25.4912 4.50255 25.6001 4.83483 25.6 5.176V8H28.8C29.2243 8 29.6313 8.16857 29.9314 8.46863C30.2314 8.76869 30.4 9.17565 30.4 9.6V22.4C30.4 22.8243 30.2314 23.2313 29.9314 23.5314C29.6313 23.8314 29.2243 24 28.8 24L23.648 24.0016C23.0288 24.8176 22.2768 25.5376 21.408 26.1296L12.8 32L4.192 26.1312C2.90004 25.2503 1.8428 24.0672 1.11222 22.6847C0.381645 21.3021 -0.000161956 19.7621 5.15356e-08 18.1984V5.176C0.00019297 4.83511 0.109259 4.50318 0.3113 4.22862C0.513341 3.95405 0.797795 3.75119 1.1232 3.6496L12.8 0ZM12.8 3.3504L3.2 6.352V18.1984C3.19977 19.178 3.4244 20.1445 3.85658 21.0236C4.28877 21.9026 4.91697 22.6708 5.6928 23.2688L5.9952 23.4864L12.8 28.128L18.8512 24H11.2C10.7757 24 10.3687 23.8314 10.0686 23.5314C9.76857 23.2313 9.6 22.8243 9.6 22.4V9.6C9.6 9.17565 9.76857 8.76869 10.0686 8.46863C10.3687 8.16857 10.7757 8 11.2 8H22.4V6.352L12.8 3.3504ZM12.8 16V20.8H27.2V16H12.8ZM12.8 12.8H27.2V11.2H12.8V12.8Z" fill="#00B894"/>
</svg>
