<svg width="36" height="32" viewBox="0 0 36 32" fill="none" xmlns="http://www.w3.org/2000/svg">
<path d="M30.2222 7.11111H24.8889V4.44444C24.8889 3.2657 24.4206 2.13524 23.5871 1.30175C22.7536 0.468253 21.6232 0 20.4444 0H15.1111C13.9324 0 12.8019 0.468253 11.9684 1.30175C11.1349 2.13524 10.6667 3.2657 10.6667 4.44444V7.11111H5.33333C3.91885 7.11111 2.56229 7.67301 1.5621 8.67321C0.561903 9.6734 0 11.03 0 12.4444V26.6667C0 28.0812 0.561903 29.4377 1.5621 30.4379C2.56229 31.4381 3.91885 32 5.33333 32H30.2222C31.6367 32 32.9933 31.4381 33.9935 30.4379C34.9937 29.4377 35.5556 28.0812 35.5556 26.6667V12.4444C35.5556 11.03 34.9937 9.6734 33.9935 8.67321C32.9933 7.67301 31.6367 7.11111 30.2222 7.11111ZM23.1111 10.6667V28.4444H12.4444V10.6667H23.1111ZM14.2222 4.44444C14.2222 4.2087 14.3159 3.9826 14.4826 3.81591C14.6493 3.64921 14.8754 3.55556 15.1111 3.55556H20.4444C20.6802 3.55556 20.9063 3.64921 21.073 3.81591C21.2397 3.9826 21.3333 4.2087 21.3333 4.44444V7.11111H14.2222V4.44444ZM3.55556 26.6667V12.4444C3.55556 11.9729 3.74286 11.5208 4.07626 11.1874C4.40965 10.854 4.86184 10.6667 5.33333 10.6667H8.88889V28.4444H5.33333C4.86184 28.4444 4.40965 28.2571 4.07626 27.9237C3.74286 27.5903 3.55556 27.1382 3.55556 26.6667ZM32 26.6667C32 27.1382 31.8127 27.5903 31.4793 27.9237C31.1459 28.2571 30.6937 28.4444 30.2222 28.4444H26.6667V10.6667H30.2222C30.6937 10.6667 31.1459 10.854 31.4793 11.1874C31.8127 11.5208 32 11.9729 32 12.4444V26.6667Z" fill="#F0932B"/>
</svg>
