<svg width="29" height="32" viewBox="0 0 29 32" fill="none" xmlns="http://www.w3.org/2000/svg">
<path d="M23.4542 9.33647C23.4542 4.17882 19.2754 0 14.1177 0C8.96008 0 4.78125 4.17882 4.78125 9.33647C4.78125 12.4536 6.30972 15.2169 8.6589 16.9111C8.64384 16.9186 8.63255 16.9224 8.62502 16.9261C6.94219 17.6376 5.43255 18.6579 4.13372 19.9605C2.8349 21.2593 1.81843 22.7727 1.1069 24.4593C0.410429 26.1082 0.0377236 27.8588 7.65738e-05 29.6584C-0.00368813 29.8278 0.131841 29.9671 0.301253 29.9671H2.55631C2.71819 29.9671 2.85372 29.8353 2.85749 29.6734C2.93278 26.7671 4.09608 24.0452 6.15537 21.9821C8.28243 19.8475 11.106 18.6729 14.1177 18.6729C19.2754 18.6729 23.4542 14.4941 23.4542 9.33647ZM14.1177 15.8118C10.5413 15.8118 7.64243 12.9129 7.64243 9.33647C7.64243 5.76 10.5413 2.86118 14.1177 2.86118C17.6942 2.86118 20.593 5.76 20.593 9.33647C20.593 12.9129 17.6942 15.8118 14.1177 15.8118ZM18.0707 24.1318H28.0095C28.1751 24.1318 28.3107 23.9962 28.3107 23.8306V21.7224C28.3107 21.5567 28.1751 21.4212 28.0095 21.4212H21.3648L23.1417 19.1586C23.1831 19.1059 23.2057 19.0381 23.2057 18.9741C23.2057 18.8085 23.0702 18.6729 22.9045 18.6729H20.1714C19.9869 18.6729 19.8137 18.7595 19.697 18.9026L17.1182 22.1816C16.9525 22.3925 16.8622 22.656 16.8622 22.9271C16.866 23.5934 17.4043 24.1318 18.0707 24.1318ZM27.106 26.5412H17.1671C17.0015 26.5412 16.866 26.6767 16.866 26.8424V28.9506C16.866 29.1162 17.0015 29.2518 17.1671 29.2518H23.8118L22.0349 31.5144C21.9935 31.5671 21.9709 31.6348 21.9709 31.6988C21.9709 31.8645 22.1064 32 22.2721 32H25.0053C25.1897 32 25.3629 31.9134 25.4796 31.7704L28.0584 28.4913C28.2241 28.2805 28.3144 28.0169 28.3144 27.7459C28.3107 27.0795 27.7723 26.5412 27.106 26.5412Z" fill="#0984E3"/>
</svg>
