<svg width="31" height="32" viewBox="0 0 31 32" fill="none" xmlns="http://www.w3.org/2000/svg">
<path d="M15.88 2H2.12C1.55774 2 1.01851 2.22336 0.620934 2.62093C0.223356 3.01851 0 3.55774 0 4.12V32H18V4.12C18 3.55774 17.7766 3.01851 17.3791 2.62093C16.9815 2.22336 16.4423 2 15.88 2ZM16 30H13V27H5V30H2V4.12C2 4.10424 2.0031 4.08864 2.00913 4.07408C2.01516 4.05952 2.024 4.04629 2.03515 4.03515C2.04629 4.024 2.05952 4.01516 2.07408 4.00913C2.08864 4.0031 2.10424 4 2.12 4H15.88C15.8958 4 15.9114 4.0031 15.9259 4.00913C15.9405 4.01516 15.9537 4.024 15.9649 4.03515C15.976 4.04629 15.9848 4.05952 15.9909 4.07408C15.9969 4.08864 16 4.10424 16 4.12V30Z" fill="#FF7675"/>
<path d="M4 7H6V9H4V7Z" fill="#FF7675"/>
<path d="M8 7H10V9H8V7Z" fill="#FF7675"/>
<path d="M12 7H14V9H12V7Z" fill="#FF7675"/>
<path d="M4 12H6V14H4V12Z" fill="#FF7675"/>
<path d="M8 12H10V14H8V12Z" fill="#FF7675"/>
<path d="M12 12H14V14H12V12Z" fill="#FF7675"/>
<path d="M4 17H6V19H4V17Z" fill="#FF7675"/>
<path d="M8 17H10V19H8V17Z" fill="#FF7675"/>
<path d="M12 17H14V19H12V17Z" fill="#FF7675"/>
<path d="M4 22H6V24H4V22Z" fill="#FF7675"/>
<path d="M8 22H10V24H8V22Z" fill="#FF7675"/>
<path d="M12 22H14V24H12V22Z" fill="#FF7675"/>
<path d="M19 12H21V14H19V12Z" fill="#FF7675"/>
<path d="M23 12H25V14H23V12Z" fill="#FF7675"/>
<path d="M19 17H21V19H19V17Z" fill="#FF7675"/>
<path d="M23 17H25V19H23V17Z" fill="#FF7675"/>
<path d="M19 22H21V24H19V22Z" fill="#FF7675"/>
<path d="M23 22H25V24H23V22Z" fill="#FF7675"/>
<path d="M27 12.43V30H19V32H29V11.87C28.3628 12.1491 27.6895 12.3376 27 12.43Z" fill="#FF7675"/>
<path d="M26 10C28.7614 10 31 7.76142 31 5C31 2.23858 28.7614 0 26 0C23.2386 0 21 2.23858 21 5C21 7.76142 23.2386 10 26 10Z" fill="#FF7675"/>
</svg>
