<svg id="Capa_1" enable-background="new 0 0 512 512" viewBox="0 0 512 512" xmlns="http://www.w3.org/2000/svg"><g><g><path d="m97.772 502.419h316.455c27.091 0 30.98-22.87 30.98-39.98v-388.658c0-17.11-13.87-30.98-30.98-30.98h-316.455c-17.11 0-30.98 13.87-30.98 30.98v388.658c0 17.11 5.849 39.98 30.98 39.98z" fill="#cf8151"/><path d="m113.835 465.273h284.331c8.413 0 10.327-13.624 10.327-19.327v-355.672c0-5.703-4.623-10.327-10.327-10.327h-284.331c-5.703 0-10.327 4.623-10.327 10.327v355.672c0 5.704 2.073 19.327 10.327 19.327z" fill="#e7ecf6"/><path d="m178.472 82.84h155.055c12.704 0 13.213-14.916 13.214-22.213v-17.79c0-7.298-5.916-13.214-13.214-13.214h-33.378v-19.136c0-5.792-4.695-10.487-10.487-10.487h-67.325c-5.792 0-10.486 4.695-10.486 10.487v19.137h-33.379c-7.298 0-13.214 5.916-13.214 13.214v17.789c.001 7.297.511 22.213 13.214 22.213z" fill="#ffe07d"/><path d="m206.345 359.427v-21.378c0-5.703-4.624-10.327-10.327-10.327h-17.303c-5.703 0-10.327 4.623-10.327 10.327v21.378l18.978 9z" fill="#de5974"/><path d="m274.978 359.427v-58.784c0-5.703-4.623-10.327-10.327-10.327h-17.303c-5.703 0-10.327 4.623-10.327 10.327v58.784l18.978 9z" fill="#e7a561"/><path d="m343.611 359.427v-99.065c0-5.703-4.624-10.327-10.327-10.327h-17.303c-5.703 0-10.327 4.624-10.327 10.327v99.065l18.978 9z" fill="#a2dafd"/><path d="m173.55 378.008h27.634c2.851 0 5.161-2.311 5.161-5.161v-13.419h-37.956v13.419c0 2.85 2.311 5.161 5.161 5.161z" fill="#c7495d"/><path d="m242.183 378.008h27.634c2.851 0 5.161-2.311 5.161-5.161v-13.419h-37.956v13.419c0 2.85 2.311 5.161 5.161 5.161z" fill="#e49542"/><path d="m310.816 378.008h27.634c2.85 0 5.161-2.311 5.161-5.161v-13.419h-37.956v13.419c0 2.85 2.311 5.161 5.161 5.161z" fill="#83c8ea"/><path d="m398.165 456.273h-284.33c-5.703 0-10.327-4.624-10.327-10.327v18.581c0 5.703 4.623 10.327 10.327 10.327h284.331c5.703 0 10.327-4.624 10.327-10.327v-18.581c-.001 5.704-4.624 10.327-10.328 10.327z" fill="#b9cbea"/><path d="m414.228 493.419h-316.456c-17.11 0-30.98-13.87-30.98-30.98v18.581c0 17.11 13.87 30.98 30.98 30.98h316.455c17.11 0 30.98-13.87 30.98-30.98v-18.581c.001 17.11-13.87 30.98-30.979 30.98z" fill="#bd6e45"/><path d="m333.527 73.84h-155.055c-7.298 0-13.214-5.916-13.214-13.214v18.581c0 7.298 5.916 13.214 13.214 13.214h155.055c7.298 0 13.214-5.916 13.214-13.214v-18.581c.001 7.298-5.916 13.214-13.214 13.214z" fill="#ffd064"/></g><g fill="#384656"><path d="m360.445 148.59c0-4.284-3.473-7.757-7.757-7.757h-193.375c-4.284 0-7.757 3.473-7.757 7.757s3.473 7.757 7.757 7.757h193.375c4.284 0 7.757-3.473 7.757-7.757z"/><path d="m205.782 188.242c-4.284 0-7.757 3.473-7.757 7.757s3.473 7.757 7.757 7.757h100.436c4.285 0 7.757-3.473 7.757-7.757s-3.472-7.757-7.757-7.757z"/><path d="m168.218 410.396c-4.284 0-7.757 3.473-7.757 7.757s3.473 7.757 7.757 7.757h38.03c4.284 0 7.757-3.473 7.757-7.757s-3.473-7.757-7.757-7.757z"/><path d="m236.985 410.396c-4.284 0-7.757 3.473-7.757 7.757s3.473 7.757 7.757 7.757h38.03c4.285 0 7.757-3.473 7.757-7.757s-3.473-7.757-7.757-7.757z"/><path d="m305.753 410.396c-4.285 0-7.757 3.473-7.757 7.757s3.472 7.757 7.757 7.757h38.03c4.285 0 7.757-3.473 7.757-7.757s-3.473-7.757-7.757-7.757z"/></g></g></svg>