<?xml version="1.0" encoding="iso-8859-1"?>
<!-- Generator: Adobe Illustrator 21.0.0, SVG Export Plug-In . SVG Version: 6.00 Build 0)  -->
<svg xmlns="http://www.w3.org/2000/svg" xmlns:xlink="http://www.w3.org/1999/xlink" version="1.1" id="Capa_1" x="0px" y="0px" viewBox="0 0 511.889 511.889" style="enable-background:new 0 0 511.889 511.889;" xml:space="preserve">
<g>
	<g>
		<path style="fill:#FFFFFF;stroke:#000000;stroke-width:15;stroke-linecap:round;stroke-linejoin:round;stroke-miterlimit:10;" d="    M342.643,163.807"/>
		<g>
			<polygon style="fill:#E2A975;" points="272.263,173.631 273.526,172.078 252.177,192.615 252.35,192.788    "/>
			<path style="fill:#E2A975;" d="M273.526,172.078l-1.263,1.552l-19.913,19.157l22.362,22.362l21.656-20.832l-0.097,0.529     l-21.336,20.525l22.312,22.312l21.732-20.905l0.218,0.226l-21.727,20.901l22.535,22.535l49.295-47.421     c15.712,17.607,3.43,37.514-8.86,48.004c-6.017,5.265-9.574,13.834-6.375,20.824c3.128,6.971,15.122,8.227,24.419,0.276     c26.297-22.453,53.748-68.673,30.118-109.804l21.983-21.147l-69.336-72.078l-20.709,19.922c0,0-23.165-13.277-54.694,17.053     c-20.263,19.492-42.808,41.117-56.229,53.982l22.563,22.563L273.526,172.078z"/>
			
				<rect x="293.147" y="227.187" transform="matrix(0.7207 -0.6932 0.6932 0.7207 -71.52 277.1637)" style="fill:#E2A975;" width="30.152" height="0.314"/>
			<polygon style="fill:#E2A975;" points="296.27,194.847 296.368,194.318 274.712,215.15 274.934,215.372    "/>
		</g>
		<g>
			<path style="fill:#FFE4C2;" d="M217.65,181.517"/>
			<line style="fill:#C38C66;" x1="273.526" y1="172.079" x2="273.526" y2="172.078"/>
			<path style="fill:#C38C66;" d="M370.82,271.852c16.18-15.564,20.47-38.766-1.539-58.814c6.299,7.059,8.092,15.843,7.195,21.531     c-1.669,10.584-8.315,20.042-14.839,25.402c-7.893,6.485-12.931,17.029-5.56,24.691c1.694,1.761,4.335,2.656,7.22,2.894     C363.142,281.898,366.413,276.09,370.82,271.852z"/>
		</g>
		<g>
			<path style="fill:#C38C66;" d="M296.242,126.881c31.529-30.329,54.694-17.053,54.694-17.053l20.71-19.922l-10.399-10.81     l-20.709,19.922c-19.504-8.863-40.865,3.749-54.694,17.053c-1.135,1.091-36.985,35.497-56.237,53.973l10.616,10.616     C254.077,167.377,277.247,145.154,296.242,126.881z"/>
			<polygon style="fill:#C38C66;" points="283.91,182.903 273.511,172.093 252.177,192.615 262.785,203.223    "/>
			<polygon style="fill:#C38C66;" points="305.862,205.993 295.464,195.185 274.711,215.149 285.318,225.756    "/>
			<polygon style="fill:#C38C66;" points="327.797,228.712 317.61,218.122 297.26,237.698 307.652,248.09    "/>
		</g>
		<path style="fill:#FFE07D;" d="M350.681,67.768c-1.05,1.013-1.08,2.703-0.067,3.757l86.872,90.199    c1.013,1.054,2.701,1.088,3.752,0.074l61.88-59.562c1.051-1.012,1.081-2.694,0.067-3.747l-86.881-90.2    c-1.013-1.054-2.701-1.087-3.752-0.074L350.681,67.768z"/>
		<path style="fill:#FFD064;" d="M350.681,67.768c-1.05,1.013-1.08,2.703-0.067,3.757l20.689,21.481    c-0.889-1.059-0.831-2.647,0.176-3.618l61.871-59.553c1.051-1.014,2.738-0.98,3.752,0.074L416.304,8.29    c-1.013-1.054-2.701-1.087-3.752-0.074L350.681,67.768z"/>
	</g>
	<g>
		<path style="fill:#FFFFFF;stroke:#000000;stroke-width:15;stroke-linecap:round;stroke-linejoin:round;stroke-miterlimit:10;" d="    M164.264,169.456"/>
		<g>
			<path style="fill:#FFE4C2;" d="M204.711,294.864c5.739-5.517,6.479-14.248,2.152-20.606l-34.327-35.686l1.552,1.263     l31.071,32.297c0.643,0.668,1.2,1.384,1.704,2.125l12.107,12.586l8.864-36.746l-33.059-34.367l0.529,0.097l32.618,33.906     l8.776-36.383l-19.462-20.232l0.226-0.218l19.323,20.086l8.864-36.746L213.478,142.8c17.607-15.712,37.513-3.43,48.004,8.86     c5.265,6.017,13.834,9.574,20.824,6.375c6.972-3.128,8.227-15.122,0.276-24.419c-22.453-26.297-68.673-53.748-109.804-30.118     l-21.147-21.983l-72.078,69.336l19.922,20.71c0,0-13.277,23.165,17.053,54.694c30.166,31.358,65.447,68.193,65.447,68.193     C188.139,300.844,198.311,301.026,204.711,294.864z"/>
		</g>
		<g>
			<path style="fill:#F2D0A5;" d="M204.711,294.865c1.956-1.88,3.325-4.137,4.12-6.543c-5.544,1.604-11.761,0.174-16.046-4.271     c0,0-37.386-39.023-65.447-68.193c-30.329-31.529-17.053-54.694-17.053-54.694l-19.922-20.709l-10.81,10.399l19.922,20.709     c-8.863,19.504,3.749,40.865,17.053,54.694c1.494,1.553,65.447,68.193,65.447,68.193     C188.587,301.323,198.711,300.641,204.711,294.865z"/>
			<path style="fill:#FFE4C2;" d="M181.975,294.449"/>
			<line style="fill:#F2D0A5;" x1="172.536" y1="238.573" x2="172.535" y2="238.574"/>
			<path style="fill:#F2D0A5;" d="M272.309,141.279c-15.564-16.18-38.766-20.47-58.814,1.539c7.059-6.299,15.843-8.092,21.531-7.195     c10.584,1.669,20.042,8.315,25.402,14.839c6.485,7.893,17.029,12.931,24.691,5.56c1.761-1.694,2.656-4.335,2.894-7.22     C282.356,148.957,276.548,145.686,272.309,141.279z"/>
		</g>
		<path style="fill:#B3E59F;" d="M68.226,161.418c1.013,1.05,2.703,1.08,3.757,0.067l90.199-86.872    c1.054-1.013,1.088-2.701,0.074-3.752l-59.562-61.88C101.681,7.93,100,7.901,98.946,8.914l-90.2,86.881    c-1.054,1.013-1.087,2.701-0.074,3.752L68.226,161.418z"/>
		<path style="fill:#95D6A4;" d="M68.226,161.418c1.013,1.05,2.703,1.08,3.757,0.067l21.481-20.689    c-1.059,0.889-2.647,0.831-3.618-0.176L30.293,78.749c-1.014-1.051-0.98-2.738,0.074-3.752L8.747,95.796    c-1.054,1.013-1.087,2.701-0.074,3.752L68.226,161.418z"/>
		<g>
			<polygon style="fill:#F2D0A5;" points="183.36,228.189 172.55,238.588 218.971,286.845 223.143,269.546    "/>
			<polygon style="fill:#F2D0A5;" points="206.45,206.238 195.642,216.635 227.834,250.1 232.006,232.804    "/>
			<polygon style="fill:#F2D0A5;" points="229.169,184.303 218.579,194.49 236.704,213.33 240.791,196.385    "/>
		</g>
	</g>
	<g>
		<path style="fill:#FFFFFF;stroke:#000000;stroke-width:15;stroke-linecap:round;stroke-linejoin:round;stroke-miterlimit:10;" d="    M261.998,343.751"/>
		<g>
			<path style="fill:#F2D0A5;" d="M293.954,197.221l0,90.984h10l0-90.984c-0.009-8.882-7.214-16.065-16.098-16.062     c-1.747,0-3.424,0.286-4.998,0.799C289.293,184.057,293.947,190.086,293.954,197.221z"/>
			<path style="fill:#F2D0A5;" d="M262.095,176.169l0,111.827h10l0-111.827c-0.009-8.882-7.214-16.065-16.098-16.062     c-1.747,0-3.424,0.286-4.998,0.799C257.433,163.005,262.088,169.035,262.095,176.169z"/>
			<path style="fill:#F2D0A5;" d="M230.22,190.171l0,98.035h10l0-98.035c-0.009-8.882-7.214-16.065-16.098-16.062     c-1.747,0-3.424,0.286-4.998,0.799C225.559,177.006,230.213,183.036,230.22,190.171z"/>
			<path style="fill:#F2D0A5;" d="M169.598,289.178c-0.96,16.13,8.747,41.627,38.453,39.665l0,0     c-25.956-2.038-29.259-26.117-28.453-39.665c0.377-7.986-3.332-16.49-10.588-19.031c-2.563-0.919-5.383-0.517-7.985,0.926     C166.942,274.361,169.939,281.972,169.598,289.178z"/>
		</g>
		<path style="fill:#C3DDFF;" d="M325.638,416.124c-0.002-1.459-1.199-2.652-2.661-2.653l-125.23,0.075    c-1.462,0-2.656,1.192-2.654,2.652l0.026,85.888c0.001,1.46,1.192,2.647,2.654,2.646l125.237-0.081    c1.462,0,2.656-1.193,2.654-2.653L325.638,416.124z"/>
		<g>
			<path style="fill:#FFFFFF;" d="M222.528,475.041c-4.142,0-7.5-3.357-7.5-7.5v-20.318c0-4.143,3.358-7.5,7.5-7.5     s7.5,3.357,7.5,7.5v20.318C230.028,471.684,226.67,475.041,222.528,475.041z"/>
		</g>
	</g>
	<g>
		<path style="fill:#FFFFFF;stroke:#000000;stroke-width:15;stroke-linecap:round;stroke-linejoin:round;stroke-miterlimit:10;" d="    M261.998,343.751"/>
		<path style="fill:#C3DDFF;" d="M325.638,416.124c-0.002-1.459-1.199-2.652-2.661-2.653l-125.23,0.075    c-1.462,0-2.656,1.192-2.654,2.652l0.026,85.888c0.001,1.46,1.192,2.647,2.654,2.646l125.237-0.081    c1.462,0,2.656-1.193,2.654-2.653L325.638,416.124z"/>
		<g>
			<path style="fill:#FFFFFF;" d="M222.528,475.041c-4.142,0-7.5-3.357-7.5-7.5v-20.318c0-4.143,3.358-7.5,7.5-7.5     s7.5,3.357,7.5,7.5v20.318C230.028,471.684,226.67,475.041,222.528,475.041z"/>
		</g>
	</g>
	<g>
		<path style="fill:#FFFFFF;stroke:#000000;stroke-width:15;stroke-linecap:round;stroke-linejoin:round;stroke-miterlimit:10;" d="    M261.998,343.751"/>
		<path style="fill:#FFE4C2;" d="M272.091,289.249l0.001-113.079c-0.009-8.882-7.214-16.065-16.098-16.062l0,0    c-8.889-0.002-16.085,7.195-16.082,16.071l0.002,113.793h0.314l0.001-99.828c-0.009-8.882-7.214-16.065-16.098-16.062l0,0    c-8.889-0.002-16.085,7.195-16.082,16.071l0.001,138.689c-23.582-0.883-29.413-23.535-28.453-39.665    c0.377-7.986-3.332-16.49-10.588-19.031c0,0,0,0,0,0c-7.193-2.579-16.413,5.195-17.128,17.407    c-2.049,34.518,12.23,86.344,58.254,97.829v30.503H310.15v-28.736c0,0,25.628-7.49,25.628-51.239    c0-43.512,0.11-94.518,0.11-94.518c-0.009-8.882-7.214-16.065-16.098-16.062l0,0c-8.889-0.002-16.085,7.195-16.082,16.071    l0.001,44.817l0.243,1.986l0.001-90.984c-0.009-8.882-7.214-16.065-16.098-16.062l0,0c-8.889-0.002-16.085,7.195-16.082,16.071    l0.001,91.581"/>
		<g>
			<path style="fill:#F2D0A5;" d="M319.79,225.331c-2.713-0.001-5.264,0.676-7.505,1.86c5.107,2.688,8.596,8.028,8.603,14.202     c0,0-0.11,54.041-0.11,94.518c0,43.748-25.628,51.239-25.628,51.239v28.736h15v-28.736c19.909-7.911,25.628-32.05,25.628-51.239     c0-2.156,0.11-94.518,0.11-94.518C335.888,231.855,328.119,225.328,319.79,225.331z"/>
			<path style="fill:#FFE4C2;" d="M335.888,241.393"/>
			<path style="fill:#F2D0A5;" d="M288.954,197.201l0,90.984h14.999l0.001-90.984c0-12.596-13.097-19.751-23.603-14.202     C285.459,185.686,288.948,191.027,288.954,197.201z"/>
			<line style="fill:#F2D0A5;" x1="303.953" y1="288.205" x2="303.954" y2="288.205"/>
			<path style="fill:#F2D0A5;" d="M257.095,176.169l0,111.827h14.997V176.169c-0.009-8.882-7.214-16.065-16.097-16.062     c0,0-0.001,0-0.001,0c-2.712-0.001-5.262,0.676-7.503,1.859C253.599,164.654,257.089,169.995,257.095,176.169z"/>
			<path style="fill:#F2D0A5;" d="M225.515,190.02l0,98.034h14.694l-0.001-101.13c-1.451-7.396-7.966-12.969-15.79-12.966     c-0.184,0-0.433,0.004-0.715,0.01c-2.453,0.109-4.765,0.751-6.811,1.838C222.01,178.49,225.509,183.838,225.515,190.02z"/>
			<path style="fill:#F2D0A5;" d="M164.598,289.153c0,22.451,13.747,41.627,43.453,39.665c-9.455-0.354-17.028-5.151-20.505-9.741     c-6.47-8.54-8.679-19.887-8.019-28.305c0.798-10.184-3.307-21.125-13.94-21.125c-2.444,0-4.92,1.283-7.091,3.198     C162.681,276.655,164.598,283.039,164.598,289.153z"/>
		</g>
		<path style="fill:#C3DDFF;" d="M325.638,416.124c-0.002-1.459-1.199-2.652-2.661-2.653l-125.23,0.075    c-1.462,0-2.656,1.192-2.654,2.652l0.026,85.888c0.001,1.46,1.192,2.647,2.654,2.646l125.237-0.081    c1.462,0,2.656-1.193,2.654-2.653L325.638,416.124z"/>
		<path style="fill:#A4CCFF;" d="M325.639,416.124c-0.002-1.459-1.199-2.652-2.661-2.653l-29.824,0.018    c1.38,0.093,2.484,1.236,2.485,2.635l0.025,85.875c0.002,1.46-1.192,2.653-2.654,2.653h30c1.462,0,2.656-1.193,2.654-2.653    L325.639,416.124z"/>
	</g>
</g>
<g>
	<path d="M509.112,93.524L422.584,3.237c-3.868-4.045-10.309-4.188-14.354-0.322l-62.203,59.379   c-3.44,3.44-4.183,8.865-1.441,12.973c1.288,1.93,3.185,3.55,4.782,5.216l-10.198,9.729c-8.332-2.491-17.337-2.114-25.655,0.23   c-15.636,4.405-27.088,15.1-38.804,25.751c-11.419-10.053-24.687-18.216-38.101-23.241c-22.184-8.311-43.818-7.889-62.95,1.148   l-10.411-10.913c4.1-3.929,8.418-8.118,5.964-14.393c-0.807-2.065-59.244-63.216-60.961-64.98   c-4.047-4.156-10.436-5.17-14.902-0.891L41.741,52.382c-6.983,6.693,3.395,17.521,10.379,10.83l48.096-46.093l52.694,55.199   l-83.294,79.818l-52.69-55.196L28.843,85.52c6.983-6.693-3.394-17.522-10.379-10.83l-15.4,14.76   c-4.306,4.117-3.847,10.471-0.03,14.662c1.23,1.351,59.206,62.254,60.794,63.323c3.65,2.456,8.574,2.199,12.002-0.529   c1.597-1.271,3.006-2.829,4.478-4.239l9.729,10.198c-2.933,9.806-5.075,31.756,20.212,58.262   c3.319,3.479,36.714,38.264,38.893,40.51c-2.835,4.222-4.583,9.426-4.911,15.023c-1.238,20.859,3.076,43.19,11.837,61.267   c10.329,21.312,26.295,35.946,46.403,42.633v15.034l-4.89,0.003c-5.523,0-10.16,4.626-10.154,10.154l0.026,85.891   c0.004,5.594,4.557,10.142,10.152,10.142c0.002,0,0.005,0,0.007,0l69.323-0.044c9.655-0.007,9.65-15-0.01-15l-64.473,0.041   l-0.023-76.187l115.545-0.069l0.023,76.182l-15.073,0.011c-9.655,0.007-9.648,15,0.012,15l19.909-0.015   c5.52,0,10.165-4.627,10.153-10.154l-0.025-85.878c-0.004-5.592-4.56-10.145-10.166-10.148l-5.322,0.003v-14.057   c8.907-5.055,25.628-19.418,25.628-56.007c0-4.919,0.11-87.471,0.11-87.471l24.567-23.438c0.969,2.465,1.35,5.018,1.159,7.695   c-0.533,7.482-5.667,16.026-13.802,22.915c-9.207,7.991-12.658,20.144-8.415,29.502c6.428,14.473,26.161,11.467,36.14,3.002   c15.966-13.522,29.164-32.068,36.211-50.881c8.31-22.183,7.89-43.817-1.148-62.95l10.913-10.411l3.377,3.525   c3.82,3.993,10.36,4.143,14.354,0.322l62.212-59.388C512.791,104.063,512.938,97.519,509.112,93.524z M121.102,220.773   c-25.111-26.321-16.534-44.57-15.829-45.947c1.766-2.895,1.245-6.416-1.101-8.874l-11.93-12.505l61.316-58.687l13.134,13.768   c2.378,2.494,6.149,3.045,9.142,1.339c16.619-9.476,35.297-10.44,55.513-2.868c16.245,6.085,32.955,17.995,44.701,31.863   c2.035,2.398,6.06,9.783,2.481,12.622c-3.578,2.839-9.938-1.806-12.155-4.36c-4.506-5.321-16.765-17.827-33.237-19.001   c-9.156-0.657-17.936,2.51-25.41,9.145c-1.518,1.348-2.425,3.252-2.514,5.279c-0.089,2.028,0.647,4.005,2.041,5.48l17.112,18.115   c-0.13-0.002-0.259-0.01-0.39-0.01c-0.005-0.001-0.01-0.001-0.014,0c-6.299,0-12.221,2.451-16.674,6.902   c-4.454,4.452-6.906,10.373-6.904,16.669l0.001,67.665l-21.813-22.748c-3.261-3.408-8.457-5.166-12.243-1.406   c-3.966,3.938-2.018,9.038,1.726,12.11l32.33,33.717c0,2.736,0.442,5.779-0.593,8.371c-0.969,2.428-3.17,4.011-5.739,4.457   c-1.84,0.319-7.283-0.198-7.129-2.787c0.574-12.163-5.841-23.045-15.548-26.444c-3.265-1.172-6.819-1.216-10.254-0.207   C161.123,262.43,133.804,234.086,121.102,220.773z M239.151,159.06c-0.145,0.145-0.28,0.297-0.421,0.445l-14.4-15.243   c2.479-0.981,5.047-1.37,7.74-1.177c6.087,0.434,12.875,3.912,18.904,9.573C246.526,153.582,242.438,155.774,239.151,159.06z    M200.386,319.341c-2.473-1.01-4.6-2.508-6.418-4.511c-1.948-2.147-3.532-4.902-4.711-8.081c0.916,0.128,1.844,0.209,2.783,0.23   c0.177,0.004,0.354,0.006,0.532,0.006c2.703,0,5.332-0.48,7.815-1.355L200.386,319.341z M328.113,335.46   c0,10.498-1.39,21.505-6.554,30.815c-2.553,4.603-6.084,8.892-10.604,11.674c-3.717,2.288-8.47,3.51-8.47,8.75v17.235h-85.013   v-19.003c0-3.442-2.344-6.443-5.684-7.277c-18.601-4.641-32.806-16.844-42.221-36.271c-7.563-15.604-11.437-35.73-10.361-53.842   c0.186-3.185,2.184-10.651,6.531-10.811c4.806-0.177,6.368,8.217,6.211,11.551c-0.413,6.941-0.177,24.406,10.914,36.628   c6.176,6.807,14.733,10.602,24.745,10.978c4.188,0.132,7.781-3.287,7.781-7.495L215.385,189.7   c-0.004-9.751,14.251-11.61,16.863-2.303l0.001,102.124c0,4.143,3.358,7.5,7.5,7.5h0.314c4.142,0,7.5-3.357,7.5-7.5l-0.315-113.796   c-0.005-11.111,17.168-11.031,17.18-0.007l-0.315,112.643c0,1.731,0.587,3.325,1.571,4.595c1.345,2.015,3.639,3.342,6.243,3.342   c4.142,0,7.5-3.358,7.5-7.5l0.001-94.347c1.973-7.035,11.568-8.355,15.485-2.305c1.297,2.003,1.379,4.133,1.373,6.39   c-0.017,6.024-0.226,82.562-0.239,87.233c0,4.03,1.646,8.16,5.91,9.249c4.661,1.19,9.333-2.458,9.333-7.263l0.001-48.858   c1.718-7.037,12.005-9.073,15.498-2.419c2.741,5.222,1.421,11.852,1.411,17.484C328.169,270.084,328.113,324.417,328.113,335.46z    M402.168,176.009c9.476,16.62,10.441,35.297,2.868,55.514c-6.085,16.245-17.995,32.954-31.863,44.7   c-2.399,2.036-9.782,6.061-12.622,2.481c-2.839-3.578,1.805-9.938,4.36-12.155c5.321-4.506,17.827-16.765,19.001-33.236   c0.652-9.149-2.51-17.936-9.145-25.41c-1.352-1.522-3.264-2.431-5.298-2.515c-2.048-0.099-4.016,0.662-5.488,2.066l-23.524,22.443   c-3.972-7.44-11.815-12.516-20.819-12.516c-0.006,0-0.013,0-0.019,0c-2.892,0-5.703,0.517-8.33,1.506v-22.124   c-0.013-12.99-10.594-23.554-23.585-23.554c-0.007-0.001-0.012,0-0.017,0c-2.874,0-5.67,0.51-8.283,1.488   c-0.118-2.706-0.697-5.294-1.656-7.691c8.851-0.727,15.381-6.954,16.706-15.692c1.427-9.405-2.987-17.754-9.07-24.555   c1.751-1.597,3.617-3.326,5.877-5.481c26.32-25.111,44.571-16.536,45.947-15.83c2.895,1.765,6.416,1.244,8.874-1.101l12.505-11.93   l58.687,61.315l-13.768,13.135C401.014,169.245,400.462,173.016,402.168,176.009z M439.715,153.084L359.898,69.79l55.196-52.69   l79.821,83.29L439.715,153.084z"/>
	<path d="M444.936,128.109c1.86,0,3.725-0.688,5.177-2.073l14.722-14.046c6.998-6.679-3.354-17.526-10.355-10.854l-14.722,14.046   C434.978,119.743,438.284,128.109,444.936,128.109z"/>
	<path d="M120.434,74.6c6.473,0,9.879-8.01,5.425-12.677l-14.045-14.722c-6.676-6.998-17.531,3.356-10.853,10.354l14.045,14.722   C116.481,73.822,118.456,74.6,120.434,74.6z"/>
	<path d="M214.863,446.773v20.318c0,9.673,15,9.673,15,0v-20.318C229.863,437.1,214.863,437.1,214.863,446.773z"/>
</g>















</svg>
