<svg width="19" height="29" viewBox="0 0 19 29" fill="none" xmlns="http://www.w3.org/2000/svg">
<path d="M9.27273 17.9744V22.7017M3.36364 13.2471V7.33805C3.36364 3.79259 5.72727 1.42896 9.27273 1.42896C12.8182 1.42896 15.1818 3.79259 15.1818 7.33805V13.2471H3.36364ZM9.27273 27.429C11.4668 27.429 13.571 26.5574 15.1224 25.0059C16.6739 23.4545 17.5455 21.3503 17.5455 19.1562C17.5455 16.9622 16.6739 14.858 15.1224 13.3065C13.571 11.7551 11.4668 10.8835 9.27273 10.8835C7.07866 10.8835 4.97446 11.7551 3.42303 13.3065C1.87159 14.858 1 16.9622 1 19.1562C1 21.3503 1.87159 23.4545 3.42303 25.0059C4.97446 26.5574 7.07866 27.429 9.27273 27.429ZM9.27273 19.1562C9.58616 19.1562 9.88676 19.0317 10.1084 18.8101C10.33 18.5884 10.4545 18.2878 10.4545 17.9744C10.4545 17.661 10.33 17.3604 10.1084 17.1387C9.88676 16.9171 9.58616 16.7926 9.27273 16.7926C8.95929 16.7926 8.65869 16.9171 8.43706 17.1387C8.21542 17.3604 8.09091 17.661 8.09091 17.9744C8.09091 18.2878 8.21542 18.5884 8.43706 18.8101C8.65869 19.0317 8.95929 19.1562 9.27273 19.1562Z" stroke="#00B894" stroke-width="2"/>
</svg>
