<svg width="21" height="27" viewBox="0 0 21 27" fill="none" xmlns="http://www.w3.org/2000/svg">
<path d="M5.14286 15.2861H12.5714V17.1432H5.14286V15.2861Z" fill="#F0932B"/>
<path d="M5.14286 10.6432H16.2857V12.5004H5.14286V10.6432Z" fill="#F0932B"/>
<path d="M5.14286 19.929H9.78572V21.7861H5.14286V19.929Z" fill="#F0932B"/>
<path d="M19.0714 3.21467H16.2857V2.2861C16.2857 1.79355 16.0901 1.32118 15.7418 0.972899C15.3935 0.624618 14.9211 0.428955 14.4286 0.428955H7C6.50746 0.428955 6.03508 0.624618 5.6868 0.972899C5.33852 1.32118 5.14286 1.79355 5.14286 2.2861V3.21467H2.35714C1.8646 3.21467 1.39223 3.41033 1.04394 3.75861C0.695663 4.1069 0.5 4.57927 0.5 5.07181V24.5718C0.5 25.0644 0.695663 25.5367 1.04394 25.885C1.39223 26.2333 1.8646 26.429 2.35714 26.429H19.0714C19.564 26.429 20.0363 26.2333 20.3846 25.885C20.7329 25.5367 20.9286 25.0644 20.9286 24.5718V5.07181C20.9286 4.57927 20.7329 4.1069 20.3846 3.75861C20.0363 3.41033 19.564 3.21467 19.0714 3.21467ZM7 2.2861H14.4286V6.00038H7V2.2861ZM19.0714 24.5718H2.35714V5.07181H5.14286V7.85753H16.2857V5.07181H19.0714V24.5718Z" fill="#F0932B"/>
</svg>
