<svg width="26" height="27" viewBox="0 0 26 27" fill="none" xmlns="http://www.w3.org/2000/svg">
<path d="M3.887 22.8609C4.3039 22.8609 4.64187 22.6304 4.64187 22.3461C4.64187 22.0618 4.3039 21.8313 3.887 21.8313C3.4701 21.8313 3.13213 22.0618 3.13213 22.3461C3.13213 22.6304 3.4701 22.8609 3.887 22.8609Z" fill="#FF7675"/>
<path d="M26 19.7855L25.7166 19.6191C25.6949 19.6066 23.5296 18.3217 22.9914 16.7626L22.8713 16.4172L22.6495 16.7071C22.6425 16.7162 22.3349 17.0967 21.4738 17.543C20.8364 13.9147 18.668 9.58312 15.8184 7.73626C16.6331 7.80212 17.4503 7.73452 18.239 7.44766C18.7139 7.27519 18.509 6.50126 18.0297 6.67632C17.3832 6.91162 16.7353 6.97575 16.0888 6.94282C17.6761 5.48812 18.9224 3.25862 18.9224 1.62842C18.9224 1.23669 18.9224 0.507388 18.3417 0.507388C18.1086 0.507388 17.9201 0.652988 17.6596 0.854055C17.2601 1.16216 16.6569 1.62842 15.7707 1.62842C15.4332 1.62842 14.8152 1.27222 14.3186 0.986222C13.7185 0.640855 13.335 0.428955 13.0126 0.428955C12.4787 0.428955 11.6939 0.860555 11.0015 1.24146C10.7198 1.39616 10.3346 1.60849 10.2548 1.62886C9.25123 1.62886 8.6684 1.16606 8.28187 0.859688C8.05653 0.680288 7.89317 0.550288 7.6752 0.550288C7.10407 0.550288 7.10407 1.23539 7.10407 2.02882C7.10407 3.56022 8.2706 5.58172 9.7981 6.94022C8.83567 7.00912 7.88667 7.29989 7.21977 7.94599C6.85143 8.30219 7.40957 8.86726 7.7766 8.51192C8.33083 7.97459 9.05753 7.74449 9.83493 7.69985C9.85703 7.77915 9.8839 7.85716 9.91683 7.93386C6.6599 10.2743 4.34633 15.8318 4.34633 19.5836C4.34633 19.9537 4.37493 20.2886 4.41913 20.6041C3.57933 20.231 3.27297 19.9038 3.2669 19.8965L3.0433 19.6386L2.93323 19.9636C2.4466 21.3954 0.331067 22.6373 0.309833 22.6499L0 22.8297L0.315033 23C0.425533 23.0598 0.535167 23.1122 0.645667 23.169L0.446333 23.3072L0.551633 24.6246L8.80793 26.429L11.9383 24.4265C12.2542 24.4283 12.574 24.4291 12.8995 24.4291L16.5585 26.429L24.8304 23.829V22.4384L24.6116 22.3071C24.7208 22.2378 24.83 22.1671 24.9388 22.0943L25.2287 21.9006L25.165 21.8694L25.5337 21.7685L25.5961 20.3229L25.3829 20.1716C25.4965 20.1036 25.6096 20.0343 25.7231 19.9623L26 19.7855ZM7.8923 2.02882C7.8923 1.83642 7.8949 1.68649 7.8988 1.56992C7.9651 1.62192 8.04223 1.67869 8.12457 1.73719C8.3772 2.34212 8.85517 3.21312 9.6655 3.76172C10.65 4.42906 10.5192 3.66206 11.0444 2.96179C11.5696 2.26196 11.9249 1.89536 12.8046 3.69542C13.1881 4.48019 13.8272 2.28709 14.4348 1.96686C14.5955 2.05439 14.7559 2.13586 14.9132 2.20519C16.0026 3.97666 16.5074 3.42415 17.475 1.95169C17.7411 1.79569 17.9595 1.62842 18.1333 1.49452C18.1341 1.53482 18.135 1.57946 18.135 1.62929C18.135 3.02029 16.9984 5.01536 15.6065 6.31666C15.5408 6.14965 15.4467 5.99527 15.3283 5.86036C14.7663 5.22379 13.8879 5.92969 13.4715 6.39292C12.7326 6.15546 11.5288 5.50155 10.7445 5.87596C10.5492 5.96657 10.3698 6.08817 10.2132 6.23606C8.93057 5.06692 7.8923 3.37909 7.8923 2.02882ZM14.914 6.78422C14.7197 6.74302 14.5266 6.69679 14.3347 6.64556C14.5765 6.43712 14.7983 6.36432 14.8915 6.67416C14.9015 6.70796 14.9075 6.74652 14.914 6.78422ZM11.6207 7.05332C11.4773 7.02602 11.3299 7.00132 11.1783 6.98182C11.0633 6.90974 10.9507 6.83386 10.8407 6.75432C11.2368 6.48869 11.9197 6.62995 12.5723 6.85139C12.2503 6.88389 11.9327 6.95409 11.6207 7.05332ZM11.8174 8.19732C11.5748 8.25799 11.3104 8.23372 11.0821 8.14272C11.1748 8.09376 11.2684 8.05129 11.362 8.00839C11.5137 8.08162 11.6653 8.14272 11.8174 8.19732ZM3.80207 23.9932C2.76852 23.6939 1.76564 23.2973 0.806867 22.8089C1.3949 22.4224 2.67583 21.4877 3.1967 20.3645C3.55377 20.6448 4.37797 21.1562 5.98303 21.5488C5.95573 21.593 5.92237 21.6402 5.8903 21.6866C4.5201 21.3278 3.74097 20.8741 3.7284 20.8663L3.53947 20.7536L3.4489 20.956C3.32973 21.2212 3.05023 21.261 2.89467 21.261C2.85133 21.261 2.8223 21.258 2.8184 21.2576L2.6637 21.235L2.60737 21.3832C2.4921 21.6857 2.0189 22.0809 1.84557 22.2079L1.5561 22.4202L1.88717 22.5558C2.01023 22.6061 2.0436 22.6525 2.04533 22.6646C2.04967 22.6945 1.99723 22.7734 1.94133 22.8189L1.68913 23.0221L1.9825 23.1577C2.58353 23.4351 3.2643 23.6647 3.94507 23.8541C3.8909 23.9074 3.8441 23.9529 3.80207 23.9932ZM7.29647 22.3786C7.90227 22.4635 8.5735 22.5173 9.3067 22.5173C9.45923 22.5173 9.61437 22.5147 9.7721 22.5099C9.78261 22.5426 9.79763 22.5737 9.81673 22.6022C9.8553 22.6607 9.9073 22.7092 9.97317 22.7469L8.8673 23.692C8.84622 23.6911 8.82513 23.6907 8.80403 23.6907C8.31133 23.6907 7.94387 23.8719 7.7675 24.1943C7.09929 24.109 6.43417 24.0011 5.7733 23.8706C6.30454 23.3978 6.81285 22.8999 7.29647 22.3786ZM2.37857 22.8973C2.4219 22.8154 2.45007 22.7162 2.4349 22.6078C2.4205 22.5101 2.37364 22.42 2.30187 22.3522C2.49643 22.1853 2.76467 21.9279 2.912 21.6614C3.24697 21.6567 3.52343 21.5297 3.69763 21.3052C3.991 21.4586 4.65183 21.7685 5.62813 22.0371C5.22903 22.5376 4.69127 23.1053 4.2731 23.5274C3.62137 23.3549 2.96487 23.1469 2.37857 22.8973ZM8.554 24.7212L8.46517 24.7216C8.09207 24.7216 6.85577 24.6913 5.22253 24.3511C5.27973 24.3026 5.3391 24.2528 5.39413 24.2051C6.71927 24.482 7.78787 24.6007 7.86803 24.6098L8.02663 24.6267L8.0756 24.4729C8.18263 24.141 8.5774 24.092 8.8036 24.092C8.86557 24.092 8.90673 24.0959 8.9115 24.0963L8.99557 24.1054L10.9165 22.464L10.403 22.4471C10.2314 22.441 10.1591 22.4024 10.1413 22.376L10.2501 22.0913L9.94933 22.1039C9.73007 22.1134 9.516 22.1182 9.3067 22.1182C8.70177 22.1182 8.14017 22.0783 7.62147 22.0155L7.74193 21.8733C8.78887 22.0133 10.0425 22.0995 11.5561 22.0887C11.1947 22.5957 10.2934 23.6734 8.554 24.7212ZM12.8977 22.8384V23.6292C12.6512 23.6292 12.4111 23.6283 12.1762 23.6266L12.1056 22.7365L11.5189 22.7842C11.9141 22.3171 12.0826 22.0055 12.0978 21.9773L12.2568 21.6766L11.921 21.6827C8.70653 21.7416 6.61007 21.3585 5.28667 20.933C5.19003 20.5421 5.13413 20.1001 5.13413 19.584C5.13413 16.0641 7.38357 10.7436 10.3701 8.58732C10.8992 9.09909 11.7017 9.32312 12.4644 8.82522C12.6317 8.71602 12.7773 8.57302 12.9138 8.42092C12.9463 8.42179 12.9796 8.42916 13.0126 8.42916C13.1218 8.42916 13.2327 8.42006 13.3432 8.40619C13.4832 8.46209 13.6201 8.51842 13.7471 8.57432C14.355 8.84212 14.8742 8.67572 15.2286 8.30652C17.9643 9.96186 20.1561 14.3407 20.7328 17.8802C19.4822 18.3802 17.4984 18.8682 14.4538 18.954C15.0544 18.6108 15.5051 18.0336 15.343 17.2752C15.1727 16.4736 14.5028 16.2482 13.809 16.2114C13.8073 15.8348 13.8073 15.4591 13.8099 15.0826C14.0227 15.1766 14.2268 15.2849 14.4122 15.4006C14.7398 15.6065 15.0362 15.073 14.7108 14.8672C14.4286 14.6898 14.1275 14.5446 13.8129 14.4343C13.8173 13.9984 13.8194 13.5633 13.8194 13.1282C13.8199 12.7296 13.2275 12.7296 13.2275 13.1282C13.2275 13.5109 13.2249 13.8931 13.2214 14.2748C12.9061 14.2199 12.5842 14.2145 12.2672 14.2588C12.2157 13.972 12.1533 13.6872 12.08 13.4051C11.9821 13.0212 11.4101 13.1837 11.5093 13.5689C11.5821 13.8458 11.6415 14.1214 11.6905 14.4009C11.6653 14.4105 11.638 14.4152 11.6133 14.4265C10.8108 14.7441 10.3211 15.554 10.9083 16.3093C11.1817 16.6612 11.5392 16.8033 11.9305 16.8506C11.9518 17.3719 11.9652 17.8936 11.9804 18.4145C11.7182 18.2442 11.4794 18.0258 11.2632 17.7948C10.9954 17.5123 10.5772 17.9486 10.8446 18.2307C11.2082 18.6177 11.5899 18.9102 12.0038 19.0974C12.0224 19.5424 12.0488 19.9888 12.0922 20.4316C12.1303 20.8247 12.7231 20.8268 12.6845 20.4316C12.648 20.0486 12.621 19.6647 12.6035 19.2803C12.8288 19.3193 13.0654 19.3292 13.3168 19.3054C13.3449 19.7153 13.3779 20.1253 13.4247 20.5352C13.4515 20.7701 13.676 20.8624 13.8415 20.8147L13.8047 21.6658C13.5438 21.6892 13.2778 21.7108 13.0004 21.729L12.6702 21.7507L12.8462 22.035C12.8639 22.0636 13.0637 22.3795 13.5096 22.8392L12.8977 22.8384ZM23.6825 19.9862C23.1378 20.2423 22.4488 20.4771 21.7468 20.6821C21.3152 20.2362 20.7632 19.6412 20.3511 19.1134C21.2693 18.8352 21.7832 18.5484 22.0151 18.3937C22.1984 18.5553 22.441 18.6394 22.7283 18.6389C22.8237 18.6389 22.9082 18.6298 22.9732 18.6194C23.1812 18.889 23.5166 19.2001 23.7263 19.386C23.6271 19.4878 23.579 19.6005 23.5829 19.7223C23.5863 19.8263 23.6279 19.9147 23.6825 19.9862ZM20.582 21.4101C20.6704 21.4881 20.7619 21.5678 20.855 21.6484C19.0983 22.1143 17.7909 22.165 17.5062 22.1697C15.6871 21.06 14.7442 19.8856 14.3806 19.357C15.9029 19.3188 17.1613 19.181 18.2108 18.9912C18.2535 19.0436 18.2967 19.0956 18.3404 19.1472C17.4968 19.2786 16.6466 19.3629 15.7937 19.3999L15.444 19.4146L15.6364 19.7088C15.636 19.7093 15.597 19.7821 15.3387 19.8323L14.9188 19.9142L16.9832 21.5856L17.0794 21.5596C17.0816 21.5592 17.2636 21.5102 17.4837 21.5102C17.8013 21.5102 18.0184 21.6068 18.1276 21.7958L18.197 21.9154L18.3317 21.8915C19.0865 21.7539 19.837 21.5934 20.582 21.4101ZM14.4733 20.1365L13.9802 20.1097C13.9572 19.8635 13.9343 19.6174 13.9169 19.3713C14.0036 19.5151 14.1813 19.7855 14.4733 20.1365ZM13.8632 18.5501C13.8348 17.9668 13.8176 17.383 13.8116 16.799C13.8827 16.8016 13.9529 16.8081 14.0196 16.8176C14.7858 16.9338 14.986 17.7857 14.388 18.265C14.232 18.3885 14.0521 18.479 13.8632 18.5501ZM18.3868 21.476C18.1926 21.2363 17.8837 21.1107 17.4841 21.1107C17.3173 21.1107 17.1704 21.1332 17.0777 21.1514L15.7798 20.0997C15.8877 20.0377 15.9605 19.9593 16.0004 19.8631C16.0102 19.8391 16.0178 19.8143 16.0229 19.789C17.0517 19.7327 17.9183 19.63 18.6511 19.5043C19.0064 19.9008 19.5286 20.4477 20.2211 21.0834C19.3704 21.2857 18.6611 21.4244 18.3868 21.476ZM13.2188 16.8146C13.2271 17.4425 13.2427 18.0721 13.276 18.6996C13.2201 18.7083 13.1651 18.7191 13.1101 18.7247C12.9237 18.746 12.7469 18.7304 12.5788 18.6879C12.5576 18.0812 12.5437 17.4733 12.5207 16.8662C12.7539 16.8553 12.99 16.8324 13.2188 16.8146ZM12.4908 16.2664C12.4638 15.7903 12.419 15.3153 12.3565 14.8425C12.6437 14.803 12.9358 14.8179 13.2175 14.8863C13.2144 15.3293 13.2137 15.7723 13.2154 16.2153C13.0251 16.2257 12.8444 16.2439 12.6854 16.2582C12.6207 16.2632 12.5558 16.266 12.4908 16.2664ZM11.8963 16.1906C11.8595 16.1806 11.8231 16.1728 11.7854 16.1603C11.612 16.1015 11.455 16.0024 11.3273 15.8712C10.9573 15.5259 11.4651 15.187 11.7854 15.0262C11.8356 15.4119 11.8703 15.801 11.8963 16.1906ZM16.679 24.6259C14.7979 23.6647 13.7887 22.5966 13.3878 22.1017C13.676 22.08 13.9486 22.054 14.2185 22.0267L17.303 24.0287L24.0673 22.1706C20.579 24.2731 17.1327 24.5934 16.679 24.6259ZM22.2655 21.2069C22.2101 21.1514 22.1438 21.0855 22.0653 21.0062C22.8349 20.7731 23.5794 20.5027 24.1345 20.2054L24.4721 20.0239L24.1297 19.8497C24.053 19.8102 23.9781 19.7379 23.9768 19.7106C23.9776 19.7002 24.008 19.6447 24.1393 19.5693L24.3897 19.4254L24.167 19.24C24.1601 19.2343 23.4654 18.6576 23.2215 18.2862L23.1409 18.1649L23.0026 18.2052C23.0013 18.2052 22.8826 18.2394 22.7283 18.2394C22.49 18.2398 22.3115 18.1618 22.1971 18.0084L22.0705 17.8407L21.9119 17.9772C21.9037 17.9842 21.4127 18.3867 20.0958 18.7672C20.0525 18.7047 20.0107 18.6411 19.9706 18.5765C21.5674 18.0925 22.3834 17.5066 22.737 17.186C23.3047 18.414 24.6562 19.4033 25.243 19.7912C24.3004 20.3615 23.3029 20.8358 22.2655 21.2069Z" fill="#FF7675"/>
<path d="M18.3647 19.9797C17.9326 19.8622 17.4451 19.9424 17.2744 20.1569C17.105 20.3723 17.319 20.6435 17.7506 20.7618C18.1831 20.8793 18.6702 20.7987 18.8409 20.5837C19.0103 20.3684 18.7971 20.098 18.3647 19.9797Z" fill="#FF7675"/>
</svg>
