<svg width="27" height="27" viewBox="0 0 27 27" fill="none" xmlns="http://www.w3.org/2000/svg">
<path d="M7.98429 15.1747C8.27017 15.2442 8.56295 15.2816 8.85714 15.2861C9.59477 15.2859 10.3156 15.0661 10.9279 14.6547L13.9179 17.3197C13.681 17.7694 13.542 18.2643 13.51 18.7716C13.478 19.2789 13.5537 19.7873 13.7321 20.2632C13.9196 20.8026 14.2288 21.2914 14.6359 21.6918C15.0429 22.0922 15.5368 22.3933 16.0791 22.5719C16.6214 22.7504 17.1976 22.8015 17.7629 22.7212C18.3282 22.6409 18.8673 22.4314 19.3385 22.1089C19.8096 21.7864 20.2001 21.3597 20.4796 20.8618C20.759 20.3639 20.9199 19.8083 20.9498 19.2381C20.9796 18.6679 20.8776 18.0985 20.6517 17.5742C20.4258 17.0498 20.082 16.5846 19.6471 16.2147L22.0057 11.4882C22.4661 11.5921 22.9426 11.602 23.4069 11.5174C23.8712 11.4329 24.3137 11.2556 24.7079 10.9961C25.3773 10.5876 25.9002 9.97763 26.2017 9.25368C26.5032 8.52974 26.5679 7.72893 26.3864 6.96599C26.2049 6.20305 25.7866 5.51714 25.1914 5.00652C24.5961 4.4959 23.8546 4.18678 23.0729 4.12345C22.2912 4.06012 21.5096 4.24582 20.8399 4.65395C20.1703 5.06209 19.647 5.67171 19.345 6.39548C19.0431 7.11924 18.9779 7.92001 19.159 8.68306C19.34 9.4461 19.7579 10.1323 20.3529 10.6432L17.9943 15.3697C17.7381 15.3134 17.4766 15.2853 17.2143 15.2861C16.4767 15.2863 15.7558 15.5061 15.1436 15.9175L12.1536 13.2525C12.3904 12.8027 12.5294 12.3079 12.5614 11.8006C12.5934 11.2933 12.5177 10.7849 12.3393 10.309C12.1532 9.77356 11.8471 9.28786 11.4444 8.88903C11.0416 8.4902 10.553 8.18883 10.0158 8.00801C9.4786 7.82719 8.90716 7.7717 8.34522 7.8458C7.78329 7.9199 7.24577 8.12163 6.77382 8.43552C6.30188 8.74942 5.90804 9.16716 5.62245 9.65676C5.33687 10.1464 5.16713 10.6948 5.12622 11.2601C5.08531 11.8255 5.17433 12.3926 5.38645 12.9183C5.59857 13.4439 5.92817 13.914 6.35 14.2925L2.35714 21.7861V0.428955H0.5V24.5718C0.5 25.0644 0.695663 25.5367 1.04394 25.885C1.39223 26.2333 1.8646 26.429 2.35714 26.429H26.5V24.5718H2.97929L7.98429 15.1747ZM22.7857 6.00038C23.153 6.00038 23.5121 6.1093 23.8175 6.31337C24.1229 6.51743 24.3609 6.80748 24.5015 7.14683C24.6421 7.48618 24.6788 7.85959 24.6072 8.21984C24.5355 8.58009 24.3586 8.911 24.0989 9.17072C23.8392 9.43045 23.5083 9.60733 23.148 9.67898C22.7878 9.75064 22.4144 9.71387 22.075 9.5733C21.7357 9.43274 21.4456 9.19471 21.2416 8.8893C21.0375 8.58389 20.9286 8.22483 20.9286 7.85753C20.9286 7.36498 21.1242 6.89261 21.4725 6.54433C21.8208 6.19605 22.2932 6.00038 22.7857 6.00038ZM19.0714 19.0004C19.0714 19.3677 18.9625 19.7268 18.7584 20.0322C18.5544 20.3376 18.2643 20.5756 17.925 20.7162C17.5856 20.8567 17.2122 20.8935 16.852 20.8218C16.4917 20.7502 16.1608 20.5733 15.9011 20.3136C15.6414 20.0539 15.4645 19.7229 15.3928 19.3627C15.3212 19.0024 15.3579 18.629 15.4985 18.2897C15.6391 17.9503 15.8771 17.6603 16.1825 17.4562C16.4879 17.2522 16.847 17.1432 17.2143 17.1432C17.7068 17.1432 18.1792 17.3389 18.5275 17.6872C18.8758 18.0355 19.0714 18.5078 19.0714 19.0004ZM8.85714 9.71467C9.22445 9.71467 9.58351 9.82359 9.88892 10.0277C10.1943 10.2317 10.4324 10.5218 10.5729 10.8611C10.7135 11.2005 10.7503 11.5739 10.6786 11.9341C10.6069 12.2944 10.4301 12.6253 10.1703 12.885C9.91061 13.1447 9.5797 13.3216 9.21945 13.3933C8.8592 13.4649 8.48579 13.4282 8.14645 13.2876C7.8071 13.147 7.51705 12.909 7.31298 12.6036C7.10892 12.2982 7 11.9391 7 11.5718C7 11.0793 7.19566 10.6069 7.54394 10.2586C7.89223 9.91033 8.3646 9.71467 8.85714 9.71467Z" fill="#0984E3"/>
</svg>
