<svg width="26" height="27" viewBox="0 0 26 27" fill="none" xmlns="http://www.w3.org/2000/svg">
<path d="M0 24.6428H26.0004V26.5H0V24.6428Z" fill="#00B894"/>
<path d="M23.2146 8.85687C23.4609 8.85687 23.6971 8.75904 23.8712 8.5849C24.0454 8.41075 24.1432 8.17457 24.1432 7.92829V5.14253C24.1431 4.9517 24.0843 4.76552 23.9746 4.60933C23.8649 4.45315 23.7098 4.33455 23.5304 4.26966L13.3159 0.55532C13.1119 0.48156 12.8885 0.48156 12.6845 0.55532L2.47004 4.26966C2.29057 4.33455 2.13545 4.45315 2.02579 4.60933C1.91613 4.76552 1.85725 4.9517 1.85717 5.14253V7.92829C1.85717 8.17457 1.955 8.41075 2.12915 8.5849C2.30329 8.75904 2.53948 8.85687 2.78576 8.85687H3.71434V20.9285H1.85717V22.7857H24.1432V20.9285H22.2861V8.85687H23.2146ZM3.71434 5.79254L13.0002 2.41249L22.2861 5.79254V6.9997H3.71434V5.79254ZM14.8574 20.9285H11.143V8.85687H14.8574V20.9285ZM5.57151 8.85687H9.28585V20.9285H5.57151V8.85687ZM20.4289 20.9285H16.7145V8.85687H20.4289V20.9285Z" fill="#00B894"/>
</svg>
