<svg width="26" height="27" viewBox="0 0 26 27" fill="none" xmlns="http://www.w3.org/2000/svg">
<path d="M25.2775 9.41583L17.0823 1.21933C16.6256 0.762167 16.0193 0.5 15.4187 0.5C14.9832 0.5 14.5941 0.637367 14.2912 0.8978L0.766011 12.5337C0.535843 12.7292 0.348983 12.9706 0.217365 13.2424C0.0857474 13.5142 0.0122651 13.8105 0.00161155 14.1123C-0.0226551 14.7597 0.227812 15.3802 0.707078 15.8599L10.6395 25.7932C11.0958 26.2491 11.6864 26.5 12.3026 26.5C12.6186 26.4996 12.9306 26.4309 13.2175 26.2987C13.5044 26.1664 13.7594 25.9738 13.9649 25.7339L25.599 12.2074C26.2399 11.4629 26.0987 10.237 25.2775 9.41583ZM0.788978 14.1418C0.795854 13.9484 0.843038 13.7586 0.927507 13.5845C1.01198 13.4104 1.13187 13.2559 1.27951 13.1308L14.8056 1.49537C14.9624 1.35973 15.1748 1.2878 15.4187 1.2878C15.8061 1.2878 16.22 1.47067 16.5255 1.7766L17.2357 2.4864L2.15398 16.1923L1.26434 15.3022C0.941512 14.9794 0.772512 14.5673 0.788978 14.1418ZM25.0015 11.6939L13.3682 25.2204C13.2373 25.3752 13.074 25.4994 12.8899 25.5844C12.7058 25.6693 12.5054 25.713 12.3026 25.7122C11.8966 25.7122 11.5036 25.5428 11.1959 25.2355L5.64794 19.6867L20.139 5.39103L24.7207 9.97267C25.2424 10.4948 25.3689 11.2675 25.0015 11.6939Z" fill="#0984E3"/>
<path d="M19.8626 7.69637L8.86111 18.9258L12.1232 22.1883L12.6177 21.6484C12.9487 21.7238 13.3348 21.6211 13.613 21.3368C14.0286 20.9117 14.2795 20.302 14.4364 19.6594L22.7442 10.5785L19.8626 7.69637ZM19.6823 11.6315C19.3772 11.7671 18.8603 11.9183 19.3616 11.3329L19.6992 11.5951C19.694 11.6076 19.6875 11.6193 19.6823 11.6315ZM21.6033 10.2907C21.6076 10.2868 21.6054 10.2816 21.608 10.2777L21.927 10.5967L15.9556 17.1244C16.1901 16.6451 16.3651 16.1477 16.5346 15.6437C16.61 15.4175 16.8045 15.4695 16.9592 15.3135C17.2743 14.9954 17.5785 14.6717 17.8853 14.3554C18.2735 13.9559 18.407 13.4259 18.7645 13.0242C19.1489 12.5935 19.5176 12.3465 19.762 11.8633C20.4805 11.5517 21.1201 10.7514 21.6033 10.2907ZM9.69268 18.9219L19.8669 8.53617L21.4932 10.1629C21.4884 10.1655 21.4837 10.1629 21.4793 10.1672C21.1968 10.4359 20.9073 10.7024 20.607 10.9615C20.3812 11.1549 20.1462 11.3372 19.9029 11.508C19.941 11.3303 19.9219 11.0192 19.6697 11.0005C19.1341 10.9585 18.6644 12.0917 19.3785 11.9829C19.4301 11.9747 19.4808 11.9547 19.5319 11.9404C19.4561 12.0791 19.3673 12.2108 19.2745 12.3361C19.0657 12.6208 18.7337 12.7867 18.4967 13.0528C18.1955 13.3899 18.0777 13.8735 17.7553 14.225C17.6127 14.3801 16.8349 15.3742 16.5584 15.2572C16.5242 15.2437 16.4756 15.2624 16.4639 15.2953C16.3747 15.5523 16.2871 15.8114 16.1987 16.0705C16.1836 16.116 16.0908 16.3089 15.9998 16.5C16.0913 16.0796 16.103 15.6255 16.0566 15.411C16.0401 15.3352 15.95 15.3295 15.9071 15.3638C15.5305 15.6649 15.4192 16.3808 15.622 16.9246C15.5089 17.0408 15.3663 17.1231 15.1839 17.1617C15.0777 17.1032 15.0001 17.2609 15.1067 17.3198C15.1414 17.3385 15.1726 17.3476 15.2051 17.3597C15.0526 17.4832 14.8784 17.6041 14.6912 17.7254C14.7384 16.968 14.7917 15.4868 13.9337 15.291C13.8912 15.2814 13.8548 15.2931 13.8349 15.3291C13.4596 15.9886 12.9227 17.3714 13.6993 18.0886C13.7907 18.1731 13.9112 18.0439 13.8197 17.9594C13.2239 17.4091 13.5784 16.3791 13.795 15.8162C14.1309 14.9469 14.4853 16.6178 14.5035 16.8748C14.5265 17.1963 14.5226 17.52 14.5057 17.8437C13.4293 18.518 12.0552 19.2434 11.9499 20.5984C11.9265 20.9044 11.9954 21.1427 12.1185 21.3178L12.1042 21.3338L9.69268 18.9219ZM15.8373 15.713C15.9431 15.928 15.9591 16.1373 15.8846 16.3396C15.8658 16.4783 15.8219 16.6123 15.755 16.7353C15.6744 16.3877 15.7229 15.9977 15.8373 15.713ZM12.3299 21.0877C12.2558 20.9109 12.1965 20.6873 12.1557 20.4065C12.2146 20.0963 12.3634 19.8103 12.5834 19.584C13.0969 18.947 13.8145 18.5262 14.4944 18.0916C14.4743 18.3368 14.4433 18.581 14.4017 18.8235L12.3299 21.0877ZM13.7846 20.7349C13.6543 20.9971 13.4677 21.2274 13.2382 21.4092C13.0462 21.5258 12.8798 21.5583 12.7347 21.5201L14.0828 20.0477C13.9961 20.2817 13.8973 20.5122 13.7846 20.7349ZM14.6747 17.975C14.9195 17.8147 15.1561 17.6496 15.3728 17.4689C15.3997 17.4464 15.4001 17.4195 15.3919 17.3931C15.5305 17.3827 15.6454 17.2951 15.7398 17.1638C15.7476 17.1764 15.7524 17.1916 15.7615 17.2037C15.7701 17.217 15.7815 17.2281 15.7951 17.2363C15.8086 17.2445 15.8238 17.2495 15.8395 17.2509L14.6205 18.583C14.6439 18.3737 14.6626 18.1683 14.6747 17.975Z" fill="#0984E3"/>
</svg>
